<svg xmlns="http://www.w3.org/2000/svg" viewBox="0 0 1377.8876 1059.2422"><defs><style>.a,.b,.c{fill:none;}.a{stroke:red;}.a,.b{stroke-miterlimit:10;stroke-width:0.25px;}.b{stroke:blue;}</style></defs><title>case_with_laser_cut</title><rect class="a" x="324.6919" y="527.0699" width="45.3543" height="5.1023"/><rect class="a" x="239.6526" y="527.0699" width="45.3542" height="5.1023"/><circle class="a" cx="575.558" cy="805.9991" r="28.3465"/><circle class="a" cx="575.558" cy="253.2431" r="28.3465"/><rect class="a" x="140.44" y="527.0699" width="45.3542" height="5.1023"/><rect class="a" x="55.4005" y="527.0699" width="45.3544" height="5.1023"/><rect class="a" x="1092.8808" y="527.0699" width="45.3543" height="5.1023"/><rect class="a" x="1277.1328" y="527.0699" width="45.3542" height="5.1023"/><rect class="a" x="1192.0935" y="527.0699" width="45.3542" height="5.1023"/><circle class="a" cx="977.3858" cy="807.8741" r="28.3465" transform="translate(-335.2927 1366.1411) rotate(-65.7907)"/><rect class="a" x="1007.8415" y="527.0699" width="45.3543" height="5.1023"/><circle class="a" cx="977.3858" cy="255.1181" r="28.3465" transform="translate(168.8503 1040.0545) rotate(-65.7907)"/><polyline class="a" points="972.408 594.817 975.243 600.487 975.243 657.18 972.408 662.849"/><polyline class="a" points="972.408 396.393 975.243 402.062 975.243 458.755 972.408 464.424"/><polyline class="a" points="405.479 464.424 402.645 458.754 402.645 402.061 405.479 396.393"/><polyline class="a" points="405.479 662.849 402.645 657.18 402.645 600.487 405.479 594.817"/><polyline class="b" points="405.479 396.393 405.479 345.369 972.408 345.369 972.408 396.393"/><line class="b" x1="405.4792" y1="464.4242" x2="405.4792" y2="594.818"/><polyline class="b" points="405.479 662.849 405.479 713.873 972.408 713.873 972.408 662.849"/><line class="b" x1="972.4084" y1="594.8174" x2="972.4084" y2="464.4242"/><circle class="b" cx="575.558" cy="621.7471" r="28.3465"/><circle class="b" cx="802.3296" cy="621.7471" r="28.3465"/><circle class="b" cx="575.558" cy="437.4951" r="28.3465"/><circle class="b" cx="802.3296" cy="437.4951" r="28.3465"/><line class="b" x1="212.7234" y1="402.062" x2="212.7234" y2="657.1801"/><line class="b" x1="1165.1643" y1="402.062" x2="1165.1643" y2="657.1801"/><line class="b" x1="408.3139" y1="163.9518" x2="969.5737" y2="163.9518"/><line class="b" x1="408.3139" y1="895.2904" x2="969.5737" y2="895.2904"/><rect class="c" x="324.6919" y="527.0699" width="45.3543" height="5.1023"/><circle class="c" cx="575.558" cy="805.9991" r="28.3465"/><circle class="c" cx="575.558" cy="253.2431" r="28.3465"/><circle class="c" cx="977.3858" cy="807.8741" r="28.3466" transform="translate(-260.3579 114.1617) rotate(-6.5108)"/><rect class="c" x="140.44" y="527.0699" width="45.3542" height="5.1023"/><rect class="c" x="239.6526" y="527.0699" width="45.3542" height="5.1023"/><rect class="c" x="55.4005" y="527.0699" width="45.3544" height="5.1023"/><rect class="c" x="1277.1328" y="527.0699" width="45.3542" height="5.1023"/><circle class="c" cx="977.3858" cy="255.1181" r="28.3466" transform="translate(-197.6805 110.5967) rotate(-6.5108)"/><rect class="c" x="1192.0935" y="527.0699" width="45.3542" height="5.1023"/><rect class="c" x="1092.8808" y="527.0699" width="45.3543" height="5.1023"/><rect class="c" x="1007.8415" y="527.0699" width="45.3543" height="5.1023"/><path class="a" d="M588.4347,980.8044l-7.8993-23.1279L596.16,934.8606,583.37,897.1654V734.1732a14.1787,14.1787,0,0,0,13.5224-18.4251h-16.357L387.78,659.0551l-184.252,54.1918V659.0551l-8.5039,5.6693-19.8425-5.6693V602.3622l19.8425-5.6693,8.5039,5.6693V460.63l-8.5039,5.6693L175.1812,460.63V403.937l19.8425-5.6693,8.5039,5.6693V349.7452L387.78,403.937l192.7559-56.6929H583.37V165.8268L596.16,128.1315l-15.6241-22.8159,7.7637-23.0714h17.3981l4.1235,5.6226,13.67-40.2895L607.6063,24.3818,615.1269,2h18.4323l3.6691,5.0866h0l85.0394,79.37h283.4646l85.0394-79.37L1094.7221,2h17.96l7.7118,22.9508-15.755,23.007,13.67,40.29,4.0022-5.9038h17.3981l7.7557,23.54L1131.97,128.512l12.66,37.3148V347.2441h2.8347l192.7559,56.6929,184.2519-54.1918V403.937l8.5039-5.6692,19.8425,5.6692V460.63l-19.8425,5.6693-8.5039-5.6693V602.3622l8.5039-5.6693,19.8425,5.6693v56.6929l-19.8425,5.6693-8.5039-5.6693v54.1918l-184.2519-54.1918-192.7559,56.693H1144.63V897.1654L1131.97,934.48l15.4951,22.6275-7.9022,23.4778h-17.3981l-3.8557-5.8414-13.67,40.29,15.755,23.007-7.7118,22.9508h-17.96l-3.95-5.0867-85.0394-79.37H722.2677l-85.0394,79.37-3.6691,5.0867H615.1269l-7.5206-22.3818,15.8841-23.1956-13.67-40.2893-3.9878,5.6789Z" transform="translate(-175.0562 -1.875)"/></svg>