  0
SECTION
  2
HEADER
  9
$ACADVER
  1
AC1024
  9
$ACADMAINTVER
 70
     6
  9
$DWGCODEPAGE
  3
UNDEFINED
  9
$INSBASE
 10
0.0
 20
0.0
 30
0.0
  9
$EXTMIN
 10
1.000000000000000E+20
 20
1.000000000000000E+20
 30
1.000000000000000E+20
  9
$EXTMAX
 10
-1.000000000000000E+20
 20
-1.000000000000000E+20
 30
-1.000000000000000E+20
  9
$LIMMIN
 10
0.0
 20
0.0
  9
$LIMMAX
 10
12.0
 20
9.0
  9
$ORTHOMODE
 70
     0
  9
$REGENMODE
 70
     1
  9
$FILLMODE
 70
     1
  9
$QTEXTMODE
 70
     0
  9
$MIRRTEXT
 70
     1
  9
$LTSCALE
 40
1.0
  9
$ATTMODE
 70
     1
  9
$TEXTSIZE
 40
0.2
  9
$TRACEWID
 40
0.05
  9
$TEXTSTYLE
  7
Standard
  9
$CLAYER
  8
0
  9
$CELTYPE
  6
ByLayer
  9
$CECOLOR
 62
   256
  9
$CELTSCALE
 40
1.0
  9
$DISPSILH
 70
     0
  9
$DIMSCALE
 40
1.0
  9
$DIMASZ
 40
0.18
  9
$DIMEXO
 40
0.0625
  9
$DIMDLI
 40
0.38
  9
$DIMRND
 40
0.0
  9
$DIMDLE
 40
0.0
  9
$DIMEXE
 40
0.18
  9
$DIMTP
 40
0.0
  9
$DIMTM
 40
0.0
  9
$DIMTXT
 40
0.18
  9
$DIMCEN
 40
0.09
  9
$DIMTSZ
 40
0.0
  9
$DIMTOL
 70
     0
  9
$DIMLIM
 70
     0
  9
$DIMTIH
 70
     1
  9
$DIMTOH
 70
     1
  9
$DIMSE1
 70
     0
  9
$DIMSE2
 70
     0
  9
$DIMTAD
 70
     0
  9
$DIMZIN
 70
     0
  9
$DIMBLK
  1

  9
$DIMASO
 70
     1
  9
$DIMSHO
 70
     1
  9
$DIMPOST
  1

  9
$DIMAPOST
  1

  9
$DIMALT
 70
     0
  9
$DIMALTD
 70
     2
  9
$DIMALTF
 40
25.4
  9
$DIMLFAC
 40
1.0
  9
$DIMTOFL
 70
     0
  9
$DIMTVP
 40
0.0
  9
$DIMTIX
 70
     0
  9
$DIMSOXD
 70
     0
  9
$DIMSAH
 70
     0
  9
$DIMBLK1
  1

  9
$DIMBLK2
  1

  9
$DIMSTYLE
  2
Standard
  9
$DIMCLRD
 70
     0
  9
$DIMCLRE
 70
     0
  9
$DIMCLRT
 70
     0
  9
$DIMTFAC
 40
1.0
  9
$DIMGAP
 40
0.09
  9
$DIMJUST
 70
     0
  9
$DIMSD1
 70
     0
  9
$DIMSD2
 70
     0
  9
$DIMTOLJ
 70
     1
  9
$DIMTZIN
 70
     0
  9
$DIMALTZ
 70
     0
  9
$DIMALTTZ
 70
     0
  9
$DIMUPT
 70
     0
  9
$DIMDEC
 70
     4
  9
$DIMTDEC
 70
     4
  9
$DIMALTU
 70
     2
  9
$DIMALTTD
 70
     2
  9
$DIMTXSTY
  7
Standard
  9
$DIMAUNIT
 70
     0
  9
$DIMADEC
 70
     0
  9
$DIMALTRND
 40
0.0
  9
$DIMAZIN
 70
     0
  9
$DIMDSEP
 70
    46
  9
$DIMATFIT
 70
     3
  9
$DIMFRAC
 70
     0
  9
$DIMLDRBLK
  1

  9
$DIMLUNIT
 70
     2
  9
$DIMLWD
 70
    -2
  9
$DIMLWE
 70
    -2
  9
$DIMTMOVE
 70
     0
  9
$DIMFXL
 40
1.0
  9
$DIMFXLON
 70
     0
  9
$DIMJOGANG
 40
0.7853981633974483
  9
$DIMTFILL
 70
     0
  9
$DIMTFILLCLR
 70
     0
  9
$DIMARCSYM
 70
     0
  9
$DIMLTYPE
  6

  9
$DIMLTEX1
  6

  9
$DIMLTEX2
  6

  9
$DIMTXTDIRECTION
 70
     0
  9
$LUNITS
 70
     2
  9
$LUPREC
 70
     4
  9
$SKETCHINC
 40
0.1
  9
$FILLETRAD
 40
0.5
  9
$AUNITS
 70
     0
  9
$AUPREC
 70
     0
  9
$MENU
  1
.
  9
$ELEVATION
 40
0.0
  9
$PELEVATION
 40
0.0
  9
$THICKNESS
 40
0.0
  9
$LIMCHECK
 70
     0
  9
$CHAMFERA
 40
0.5
  9
$CHAMFERB
 40
0.5
  9
$CHAMFERC
 40
1.0
  9
$CHAMFERD
 40
0.0
  9
$SKPOLY
 70
     0
  9
$TDCREATE
 40
2458979.099108796
  9
$TDUCREATE
 40
2458978.765775463
  9
$TDUPDATE
 40
2458979.099108796
  9
$TDUUPDATE
 40
2458978.765775463
  9
$TDINDWG
 40
0.0000000116
  9
$TDUSRTIMER
 40
0.0000000116
  9
$USRTIMER
 70
     1
  9
$ANGBASE
 50
0.0
  9
$ANGDIR
 70
     0
  9
$PDMODE
 70
     0
  9
$PDSIZE
 40
0.0
  9
$PLINEWID
 40
0.0
  9
$SPLFRAME
 70
     0
  9
$SPLINETYPE
 70
     6
  9
$SPLINESEGS
 70
     8
  9
$HANDSEED
  5
128
  9
$SURFTAB1
 70
     6
  9
$SURFTAB2
 70
     6
  9
$SURFTYPE
 70
     6
  9
$SURFU
 70
     6
  9
$SURFV
 70
     6
  9
$UCSBASE
  2

  9
$UCSNAME
  2

  9
$UCSORG
 10
0.0
 20
0.0
 30
0.0
  9
$UCSXDIR
 10
1.0
 20
0.0
 30
0.0
  9
$UCSYDIR
 10
0.0
 20
1.0
 30
0.0
  9
$UCSORTHOREF
  2

  9
$UCSORTHOVIEW
 70
     0
  9
$UCSORGTOP
 10
0.0
 20
0.0
 30
0.0
  9
$UCSORGBOTTOM
 10
0.0
 20
0.0
 30
0.0
  9
$UCSORGLEFT
 10
0.0
 20
0.0
 30
0.0
  9
$UCSORGRIGHT
 10
0.0
 20
0.0
 30
0.0
  9
$UCSORGFRONT
 10
0.0
 20
0.0
 30
0.0
  9
$UCSORGBACK
 10
0.0
 20
0.0
 30
0.0
  9
$PUCSBASE
  2

  9
$PUCSNAME
  2

  9
$PUCSORG
 10
0.0
 20
0.0
 30
0.0
  9
$PUCSXDIR
 10
1.0
 20
0.0
 30
0.0
  9
$PUCSYDIR
 10
0.0
 20
1.0
 30
0.0
  9
$PUCSORTHOREF
  2

  9
$PUCSORTHOVIEW
 70
     0
  9
$PUCSORGTOP
 10
0.0
 20
0.0
 30
0.0
  9
$PUCSORGBOTTOM
 10
0.0
 20
0.0
 30
0.0
  9
$PUCSORGLEFT
 10
0.0
 20
0.0
 30
0.0
  9
$PUCSORGRIGHT
 10
0.0
 20
0.0
 30
0.0
  9
$PUCSORGFRONT
 10
0.0
 20
0.0
 30
0.0
  9
$PUCSORGBACK
 10
0.0
 20
0.0
 30
0.0
  9
$USERI1
 70
     0
  9
$USERI2
 70
     0
  9
$USERI3
 70
     0
  9
$USERI4
 70
     0
  9
$USERI5
 70
     0
  9
$USERR1
 40
0.0
  9
$USERR2
 40
0.0
  9
$USERR3
 40
0.0
  9
$USERR4
 40
0.0
  9
$USERR5
 40
0.0
  9
$WORLDVIEW
 70
     1
  9
$SHADEDGE
 70
     3
  9
$SHADEDIF
 70
    70
  9
$TILEMODE
 70
     1
  9
$MAXACTVP
 70
    64
  9
$PINSBASE
 10
0.0
 20
0.0
 30
0.0
  9
$PLIMCHECK
 70
     0
  9
$PEXTMIN
 10
1.000000000000000E+20
 20
1.000000000000000E+20
 30
1.000000000000000E+20
  9
$PEXTMAX
 10
-1.000000000000000E+20
 20
-1.000000000000000E+20
 30
-1.000000000000000E+20
  9
$PLIMMIN
 10
0.0
 20
0.0
  9
$PLIMMAX
 10
12.0
 20
9.0
  9
$UNITMODE
 70
     0
  9
$VISRETAIN
 70
     1
  9
$PLINEGEN
 70
     0
  9
$PSLTSCALE
 70
     1
  9
$TREEDEPTH
 70
  3020
  9
$CMLSTYLE
  2
Standard
  9
$CMLJUST
 70
     0
  9
$CMLSCALE
 40
1.0
  9
$PROXYGRAPHICS
 70
     1
  9
$MEASUREMENT
 70
     0
  9
$CELWEIGHT
370
    -1
  9
$ENDCAPS
280
     0
  9
$JOINSTYLE
280
     0
  9
$LWDISPLAY
290
     1
  9
$INSUNITS
 70
     4
  9
$HYPERLINKBASE
  1

  9
$STYLESHEET
  1

  9
$XEDIT
290
     1
  9
$CEPSNTYPE
380
     0
  9
$PSTYLEMODE
290
     1
  9
$FINGERPRINTGUID
  2
{7CB50741-9C08-5AD1-C172-F5B9CDF9EB47}
  9
$VERSIONGUID
  2
{FAEB1C32-E019-11D5-929B-00C0DF256EC4}
  9
$EXTNAMES
290
     1
  9
$PSVPSCALE
 40
0.0
  9
$OLESTARTUP
290
     0
  9
$SORTENTS
280
   127
  9
$INDEXCTL
280
     0
  9
$HIDETEXT
280
     1
  9
$XCLIPFRAME
280
     2
  9
$HALOGAP
280
     0
  9
$OBSCOLOR
 70
   257
  9
$OBSLTYPE
280
     0
  9
$INTERSECTIONDISPLAY
280
     0
  9
$INTERSECTIONCOLOR
 70
   257
  9
$DIMASSOC
280
     2
  9
$PROJECTNAME
  1

  9
$CAMERADISPLAY
290
     0
  9
$LENSLENGTH
 40
50.0
  9
$CAMERAHEIGHT
 40
0.0
  9
$STEPSPERSEC
 40
2.0
  9
$STEPSIZE
 40
6.0
  9
$3DDWFPREC
 40
2.0
  9
$PSOLWIDTH
 40
0.25
  9
$PSOLHEIGHT
 40
4.0
  9
$LOFTANG1
 40
1.570796326794897
  9
$LOFTANG2
 40
1.570796326794897
  9
$LOFTMAG1
 40
0.0
  9
$LOFTMAG2
 40
0.0
  9
$LOFTPARAM
 70
     7
  9
$LOFTNORMALS
280
     1
  9
$LATITUDE
 40
37.795
  9
$LONGITUDE
 40
-122.394
  9
$NORTHDIRECTION
 40
0.0
  9
$TIMEZONE
 70
 -8000
  9
$LIGHTGLYPHDISPLAY
280
     1
  9
$TILEMODELIGHTSYNCH
280
     1
  9
$CMATERIAL
347
3C
  9
$SOLIDHIST
280
     1
  9
$SHOWHIST
280
     1
  9
$DWFFRAME
280
     2
  9
$DGNFRAME
280
     2
  9
$REALWORLDSCALE
290
     1
  9
$INTERFERECOLOR
 62
   256
  9
$CSHADOW
280
     0
  9
$SHADOWPLANELOCATION
 40
0.0
  0
ENDSEC
  0
SECTION
  2
CLASSES
  0
CLASS
  1
ACDBDICTIONARYWDFLT
  2
AcDbDictionaryWithDefault
  3
ObjectDBX Classes
 90
        0
 91
        4
280
     0
281
     0
  0
CLASS
  1
VISUALSTYLE
  2
AcDbVisualStyle
  3
ObjectDBX Classes
 90
     4095
 91
        4
280
     0
281
     0
  0
CLASS
  1
MATERIAL
  2
AcDbMaterial
  3
ObjectDBX Classes
 90
     1153
 91
        4
280
     0
281
     0
  0
CLASS
  1
SUN
  2
AcDbSun
  3
SCENEOE
 90
     1024
 91
        4
280
     0
281
     0
  0
ENDSEC
  0
SECTION
  2
TABLES
  0
TABLE
  2
VPORT
  5
8
330
0
100
AcDbSymbolTable
 70
     1
  0
VPORT
  5
29
330
8
100
AcDbSymbolTableRecord
100
AcDbViewportTableRecord
  2
*Active
 70
     0
 10
0.0
 20
0.0
 11
1.0
 21
1.0
 12
0.0
 22
0.0
 13
0.0
 23
0.0
 14
0.5
 24
0.5
 15
0.5
 25
0.5
 16
0.0
 26
0.0
 36
1.0
 17
304.7999999238
 27
-228.5999823039609
 37
0.0
 40
374.9999907395832
 41
1.625600039736891
 42
50.0
 43
0.0
 44
0.0
 50
0.0
 51
0.0
 71
     0
 72
   100
 73
     1
 74
     3
 75
     0
 76
     0
 77
     0
 78
     0
281
     0
 65
     1
110
0.0
120
0.0
130
0.0
111
1.0
121
0.0
131
0.0
112
0.0
122
1.0
132
0.0
 79
     0
146
0.0
 60
     3
 61
     5
292
     1
282
     1
141
0.0
142
0.0
 63
   250
361
3F
  0
ENDTAB
  0
TABLE
  2
LTYPE
  5
5
330
0
100
AcDbSymbolTable
 70
     1
  0
LTYPE
  5
14
330
5
100
AcDbSymbolTableRecord
100
AcDbLinetypeTableRecord
  2
ByBlock
 70
     0
  3

 72
    65
 73
     0
 40
0.0
  0
LTYPE
  5
15
330
5
100
AcDbSymbolTableRecord
100
AcDbLinetypeTableRecord
  2
ByLayer
 70
     0
  3

 72
    65
 73
     0
 40
0.0
  0
LTYPE
  5
16
330
5
100
AcDbSymbolTableRecord
100
AcDbLinetypeTableRecord
  2
Continuous
 70
     0
  3
Solid line
 72
    65
 73
     0
 40
0.0
  0
ENDTAB
  0
TABLE
  2
LAYER
  5
2
330
0
100
AcDbSymbolTable
 70
     6
  0
LAYER
  5
10
330
2
100
AcDbSymbolTableRecord
100
AcDbLayerTableRecord
  2
0
 70
     0
 62
     7
  6
Continuous
370
    -3
390
F
347
3E
  0
LAYER
  5
40
330
2
100
AcDbSymbolTableRecord
100
AcDbLayerTableRecord
  2
_U+5716_U+5C64 1
 70
     5
 62
     7
  6
Continuous
370
    -3
390
F
347
3E
  0
LAYER
  5
41
330
2
100
AcDbSymbolTableRecord
100
AcDbLayerTableRecord
  2
inside_cut
 70
     0
 62
     7
  6
Continuous
370
    -3
390
F
347
3E
  0
LAYER
  5
9E
330
2
100
AcDbSymbolTableRecord
100
AcDbLayerTableRecord
  2
inside_engraving
 70
     0
 62
     7
  6
Continuous
370
    -3
390
F
347
3E
  0
LAYER
  5
E3
330
2
100
AcDbSymbolTableRecord
100
AcDbLayerTableRecord
  2
outside_cut
 70
     0
 62
     7
  6
Continuous
370
    -3
390
F
347
3E
  0
LAYER
  5
125
330
2
100
AcDbSymbolTableRecord
100
AcDbLayerTableRecord
  2
info
 70
     0
 62
     7
  6
Continuous
370
    -3
390
F
347
3E
  0
ENDTAB
  0
TABLE
  2
STYLE
  5
3
330
0
100
AcDbSymbolTable
 70
     1
  0
STYLE
  5
11
330
3
100
AcDbSymbolTableRecord
100
AcDbTextStyleTableRecord
  2
Standard
 70
     0
 40
0.0
 41
1.0
 50
0.0
 71
     0
 42
0.2
  3
txt
  4

  0
ENDTAB
  0
TABLE
  2
VIEW
  5
6
330
0
100
AcDbSymbolTable
 70
     0
  0
ENDTAB
  0
TABLE
  2
UCS
  5
7
330
0
100
AcDbSymbolTable
 70
     0
  0
ENDTAB
  0
TABLE
  2
APPID
  5
9
330
0
100
AcDbSymbolTable
 70
     1
  0
APPID
  5
12
330
9
100
AcDbSymbolTableRecord
100
AcDbRegAppTableRecord
  2
ACAD
 70
     0
  0
ENDTAB
  0
TABLE
  2
DIMSTYLE
  5
A
330
0
100
AcDbSymbolTable
 70
     1
100
AcDbDimStyleTable
  0
DIMSTYLE
105
27
330
A
100
AcDbSymbolTableRecord
100
AcDbDimStyleTableRecord
  2
Standard
 70
     0
178
     0
340
11
  0
ENDTAB
  0
TABLE
  2
BLOCK_RECORD
  5
1
330
0
100
AcDbSymbolTable
 70
    11
  0
BLOCK_RECORD
  5
1F
330
1
100
AcDbSymbolTableRecord
100
AcDbBlockTableRecord
  2
*Model_Space
340
22
 70
     0
280
     1
281
     0
  0
BLOCK_RECORD
  5
1B
330
1
100
AcDbSymbolTableRecord
100
AcDbBlockTableRecord
  2
*Paper_Space
340
1E
 70
     0
280
     1
281
     0
  0
BLOCK_RECORD
  5
23
330
1
100
AcDbSymbolTableRecord
100
AcDbBlockTableRecord
  2
*Paper_Space0
340
26
 70
     0
280
     1
281
     0
  0
BLOCK_RECORD
  5
42
330
1
100
AcDbSymbolTableRecord
100
AcDbBlockTableRecord
  2
block 2
340
0
102
{BLKREFS
331
43
102
}
 70
     0
280
     1
281
     0
  0
BLOCK_RECORD
  5
46
330
1
100
AcDbSymbolTableRecord
100
AcDbBlockTableRecord
  2
block 3
340
0
102
{BLKREFS
331
47
102
}
 70
     0
280
     1
281
     0
  0
BLOCK_RECORD
  5
9F
330
1
100
AcDbSymbolTableRecord
100
AcDbBlockTableRecord
  2
block 4
340
0
102
{BLKREFS
331
A0
102
}
 70
     0
280
     1
281
     0
  0
BLOCK_RECORD
  5
A3
330
1
100
AcDbSymbolTableRecord
100
AcDbBlockTableRecord
  2
block 5
340
0
102
{BLKREFS
331
A4
102
}
 70
     0
280
     1
281
     0
  0
BLOCK_RECORD
  5
BB
330
1
100
AcDbSymbolTableRecord
100
AcDbBlockTableRecord
  2
block 6
340
0
102
{BLKREFS
331
BC
102
}
 70
     0
280
     1
281
     0
  0
BLOCK_RECORD
  5
BF
330
1
100
AcDbSymbolTableRecord
100
AcDbBlockTableRecord
  2
block 7
340
0
102
{BLKREFS
331
C0
102
}
 70
     0
280
     1
281
     0
  0
BLOCK_RECORD
  5
C4
330
1
100
AcDbSymbolTableRecord
100
AcDbBlockTableRecord
  2
block 8
340
0
102
{BLKREFS
331
C5
102
}
 70
     0
280
     1
281
     0
  0
BLOCK_RECORD
  5
C9
330
1
100
AcDbSymbolTableRecord
100
AcDbBlockTableRecord
  2
block 9
340
0
102
{BLKREFS
331
CA
102
}
 70
     0
280
     1
281
     0
  0
BLOCK_RECORD
  5
CE
330
1
100
AcDbSymbolTableRecord
100
AcDbBlockTableRecord
  2
block 10
340
0
102
{BLKREFS
331
CF
102
}
 70
     0
280
     1
281
     0
  0
BLOCK_RECORD
  5
E4
330
1
100
AcDbSymbolTableRecord
100
AcDbBlockTableRecord
  2
block 11
340
0
102
{BLKREFS
331
E5
102
}
 70
     0
280
     1
281
     0
  0
ENDTAB
  0
ENDSEC
  0
SECTION
  2
BLOCKS
  0
BLOCK
  5
20
330
1F
100
AcDbEntity
  8
0
100
AcDbBlockBegin
  2
*Model_Space
 70
     0
 10
0.0
 20
0.0
 30
0.0
  3
*Model_Space
  1

  0
ENDBLK
  5
21
330
1F
100
AcDbEntity
  8
0
100
AcDbBlockEnd
  0
BLOCK
  5
1C
330
1B
100
AcDbEntity
 67
     1
  8
0
100
AcDbBlockBegin
  2
*Paper_Space
 70
     0
 10
0.0
 20
0.0
 30
0.0
  3
*Paper_Space
  1

  0
ENDBLK
  5
1D
330
1B
100
AcDbEntity
 67
     1
  8
0
100
AcDbBlockEnd
  0
BLOCK
  5
24
330
23
100
AcDbEntity
  8
0
100
AcDbBlockBegin
  2
*Paper_Space0
 70
     0
 10
0.0
 20
0.0
 30
0.0
  3
*Paper_Space0
  1

  0
ENDBLK
  5
25
330
23
100
AcDbEntity
  8
0
100
AcDbBlockEnd
  0
BLOCK
  5
44
330
42
100
AcDbEntity
  8
0
100
AcDbBlockBegin
  2
block 2
 70
     0
 10
0.0
 20
0.0
 30
0.0
  3
block 2
  1

  0
INSERT
  5
47
330
42
100
AcDbEntity
  8
inside_cut
100
AcDbBlockReference
  2
block 3
 10
0.0
 20
0.0
 30
0.0
  0
POLYLINE
  5
86
330
42
100
AcDbEntity
  8
inside_cut
 62
     1
420
 16711680
370
     9
100
AcDb2dPolyline
 66
     1
 10
0.0
 20
0.0
 30
0.0
  0
VERTEX
  5
87
330
86
100
AcDbEntity
  8
inside_cut
 62
     1
420
 16711680
370
     9
100
AcDbVertex
100
AcDb2dVertex
 10
404.8000115654664
 20
-251.5998057704332
 30
0.0
  0
VERTEX
  5
88
330
86
100
AcDbEntity
  8
inside_cut
 62
     1
420
 16711680
370
     9
100
AcDbVertex
100
AcDb2dVertex
 10
405.7999954541054
 20
-253.5999852143775
 30
0.0
  0
VERTEX
  5
89
330
86
100
AcDbEntity
  8
inside_cut
 62
     1
420
 16711680
370
     9
100
AcDbVertex
100
AcDb2dVertex
 10
405.7999954541054
 20
-273.6000157649335
 30
0.0
  0
VERTEX
  5
8A
330
86
100
AcDbEntity
  8
inside_cut
 62
     1
420
 16711680
370
     9
100
AcDbVertex
100
AcDb2dVertex
 10
404.8000115654664
 20
-275.5997718755443
 30
0.0
  0
SEQEND
  5
8B
330
86
100
AcDbEntity
  8
inside_cut
 62
     1
420
 16711680
370
     9
  0
POLYLINE
  5
8C
330
42
100
AcDbEntity
  8
inside_cut
 62
     1
420
 16711680
370
     9
100
AcDb2dPolyline
 66
     1
 10
0.0
 20
0.0
 30
0.0
  0
VERTEX
  5
8D
330
8C
100
AcDbEntity
  8
inside_cut
 62
     1
420
 16711680
370
     9
100
AcDbVertex
100
AcDb2dVertex
 10
404.8000115654664
 20
-181.600016343489
 30
0.0
  0
VERTEX
  5
8E
330
8C
100
AcDbEntity
  8
inside_cut
 62
     1
420
 16711680
370
     9
100
AcDbVertex
100
AcDb2dVertex
 10
405.7999954541054
 20
-183.5999841207665
 30
0.0
  0
VERTEX
  5
8F
330
8C
100
AcDbEntity
  8
inside_cut
 62
     1
420
 16711680
370
     9
100
AcDbVertex
100
AcDb2dVertex
 10
405.7999954541054
 20
-203.6000146713222
 30
0.0
  0
VERTEX
  5
90
330
8C
100
AcDbEntity
  8
inside_cut
 62
     1
420
 16711680
370
     9
100
AcDbVertex
100
AcDb2dVertex
 10
404.8000115654664
 20
-205.5999824486
 30
0.0
  0
SEQEND
  5
91
330
8C
100
AcDbEntity
  8
inside_cut
 62
     1
420
 16711680
370
     9
  0
POLYLINE
  5
92
330
42
100
AcDbEntity
  8
inside_cut
 62
     1
420
 16711680
370
     9
100
AcDb2dPolyline
 66
     1
 10
0.0
 20
0.0
 30
0.0
  0
VERTEX
  5
93
330
92
100
AcDbEntity
  8
inside_cut
 62
     1
420
 16711680
370
     9
100
AcDbVertex
100
AcDb2dVertex
 10
204.7999831084505
 20
-205.5999824486
 30
0.0
  0
VERTEX
  5
94
330
92
100
AcDbEntity
  8
inside_cut
 62
     1
420
 16711680
370
     9
100
AcDbVertex
100
AcDb2dVertex
 10
203.7999992450733
 20
-203.5998030046558
 30
0.0
  0
VERTEX
  5
95
330
92
100
AcDbEntity
  8
inside_cut
 62
     1
420
 16711680
370
     9
100
AcDbVertex
100
AcDb2dVertex
 10
203.7999992450733
 20
-183.5997724541001
 30
0.0
  0
VERTEX
  5
96
330
92
100
AcDbEntity
  8
inside_cut
 62
     1
420
 16711680
370
     9
100
AcDbVertex
100
AcDb2dVertex
 10
204.7999831084505
 20
-181.600016343489
 30
0.0
  0
SEQEND
  5
97
330
92
100
AcDbEntity
  8
inside_cut
 62
     1
420
 16711680
370
     9
  0
POLYLINE
  5
98
330
42
100
AcDbEntity
  8
inside_cut
 62
     1
420
 16711680
370
     9
100
AcDb2dPolyline
 66
     1
 10
0.0
 20
0.0
 30
0.0
  0
VERTEX
  5
99
330
98
100
AcDbEntity
  8
inside_cut
 62
     1
420
 16711680
370
     9
100
AcDbVertex
100
AcDb2dVertex
 10
204.7999831084505
 20
-275.5997718755443
 30
0.0
  0
VERTEX
  5
9A
330
98
100
AcDbEntity
  8
inside_cut
 62
     1
420
 16711680
370
     9
100
AcDbVertex
100
AcDb2dVertex
 10
203.7999992450733
 20
-273.5998040982664
 30
0.0
  0
VERTEX
  5
9B
330
98
100
AcDbEntity
  8
inside_cut
 62
     1
420
 16711680
370
     9
100
AcDbVertex
100
AcDb2dVertex
 10
203.7999992450733
 20
-253.5997735477112
 30
0.0
  0
VERTEX
  5
9C
330
98
100
AcDbEntity
  8
inside_cut
 62
     1
420
 16711680
370
     9
100
AcDbVertex
100
AcDb2dVertex
 10
204.7999831084505
 20
-251.5998057704332
 30
0.0
  0
SEQEND
  5
9D
330
98
100
AcDbEntity
  8
inside_cut
 62
     1
420
 16711680
370
     9
  0
ENDBLK
  5
45
330
42
100
AcDbEntity
  8
0
100
AcDbBlockEnd
  0
BLOCK
  5
48
330
46
100
AcDbEntity
  8
0
100
AcDbBlockBegin
  2
block 3
 70
     0
 10
0.0
 20
0.0
 30
0.0
  3
block 3
  1

  0
POLYLINE
  5
4A
330
46
100
AcDbEntity
  8
inside_cut
 62
     1
420
 16711680
370
     9
100
AcDb2dPolyline
 66
     1
 10
0.0
 20
0.0
 30
0.0
  0
VERTEX
  5
4B
330
4A
100
AcDbEntity
  8
inside_cut
 62
     1
420
 16711680
370
     9
100
AcDbVertex
100
AcDb2dVertex
 10
176.3000196688785
 20
-229.4999713315141
 30
0.0
  0
VERTEX
  5
4C
330
4A
100
AcDbEntity
  8
inside_cut
 62
     1
420
 16711680
370
     9
100
AcDbVertex
100
AcDb2dVertex
 10
192.3000084273514
 20
-229.4999713315141
 30
0.0
  0
VERTEX
  5
4D
330
4A
100
AcDbEntity
  8
inside_cut
 62
     1
420
 16711680
370
     9
100
AcDbVertex
100
AcDb2dVertex
 10
192.3000084273514
 20
-227.6999932764084
 30
0.0
  0
VERTEX
  5
4E
330
4A
100
AcDbEntity
  8
inside_cut
 62
     1
420
 16711680
370
     9
100
AcDbVertex
100
AcDb2dVertex
 10
176.3000196688785
 20
-227.6999932764084
 30
0.0
  0
VERTEX
  5
4F
330
4A
100
AcDbEntity
  8
inside_cut
 62
     1
420
 16711680
370
     9
100
AcDbVertex
100
AcDb2dVertex
 10
176.3000196688785
 20
-229.4999713315141
 30
0.0
  0
SEQEND
  5
50
330
4A
100
AcDbEntity
  8
inside_cut
 62
     1
420
 16711680
370
     9
  0
POLYLINE
  5
51
330
46
100
AcDbEntity
  8
inside_cut
 62
     1
420
 16711680
370
     9
100
AcDb2dPolyline
 66
     1
 10
0.0
 20
0.0
 30
0.0
  0
VERTEX
  5
52
330
51
100
AcDbEntity
  8
inside_cut
 62
     1
420
 16711680
370
     9
100
AcDbVertex
100
AcDb2dVertex
 10
146.3000451564638
 20
-229.4999713315141
 30
0.0
  0
VERTEX
  5
53
330
51
100
AcDbEntity
  8
inside_cut
 62
     1
420
 16711680
370
     9
100
AcDbVertex
100
AcDb2dVertex
 10
162.3000027372028
 20
-229.4999713315141
 30
0.0
  0
VERTEX
  5
54
330
51
100
AcDbEntity
  8
inside_cut
 62
     1
420
 16711680
370
     9
100
AcDbVertex
100
AcDb2dVertex
 10
162.3000027372028
 20
-227.6999932764084
 30
0.0
  0
VERTEX
  5
55
330
51
100
AcDbEntity
  8
inside_cut
 62
     1
420
 16711680
370
     9
100
AcDbVertex
100
AcDb2dVertex
 10
146.3000451564638
 20
-227.6999932764084
 30
0.0
  0
VERTEX
  5
56
330
51
100
AcDbEntity
  8
inside_cut
 62
     1
420
 16711680
370
     9
100
AcDbVertex
100
AcDb2dVertex
 10
146.3000451564638
 20
-229.4999713315141
 30
0.0
  0
SEQEND
  5
57
330
51
100
AcDbEntity
  8
inside_cut
 62
     1
420
 16711680
370
     9
  0
SPLINE
  5
58
330
46
100
AcDbEntity
  8
inside_cut
 62
     1
420
 16711680
370
     9
100
AcDbSpline
210
0.0
220
0.0
230
1.0
 70
    11
 71
     3
 72
    17
 73
    13
 74
     0
 42
0.0000000001
 43
0.0000000001
 12
1.0
 22
0.0
 32
0.0
 13
1.0
 23
0.0
 33
0.0
 40
0.0
 40
0.0
 40
0.0
 40
0.0
 40
1.0
 40
1.0
 40
1.0
 40
2.0
 40
2.0
 40
2.0
 40
3.0
 40
3.0
 40
3.0
 40
4.0
 40
4.0
 40
4.0
 40
4.0
 10
264.8000026888336
 20
-316.1000013098642
 30
0.0
 10
259.2771608852885
 20
-316.1000013098642
 30
0.0
 10
254.7999876661774
 20
-320.577174642078
 30
0.0
 10
254.7999876661774
 20
-326.1000165851419
 30
0.0
 10
254.7999876661774
 20
-331.6228585282051
 30
0.0
 10
259.2771608852885
 20
-336.1000318604196
 30
0.0
 10
264.8000026888336
 20
-336.1000318604196
 30
0.0
 10
270.3228444923786
 20
-336.1000318604196
 30
0.0
 10
274.8000177114897
 20
-331.6228585282051
 30
0.0
 10
274.8000177114897
 20
-326.1000165851419
 30
0.0
 10
274.8000177114897
 20
-320.577174642078
 30
0.0
 10
270.3228444923786
 20
-316.1000013098642
 30
0.0
 10
264.8000026888336
 20
-316.1000013098642
 30
0.0
  0
SPLINE
  5
59
330
46
100
AcDbEntity
  8
inside_cut
 62
     1
420
 16711680
370
     9
100
AcDbSpline
210
0.0
220
0.0
230
1.0
 70
    11
 71
     3
 72
    17
 73
    13
 74
     0
 42
0.0000000001
 43
0.0000000001
 12
1.0
 22
0.0
 32
0.0
 13
1.0
 23
0.0
 33
0.0
 40
0.0
 40
0.0
 40
0.0
 40
0.0
 40
1.0
 40
1.0
 40
1.0
 40
2.0
 40
2.0
 40
2.0
 40
3.0
 40
3.0
 40
3.0
 40
4.0
 40
4.0
 40
4.0
 40
4.0
 10
264.8000026888336
 20
-121.0999680252805
 30
0.0
 10
259.2771608852885
 20
-121.0999680252805
 30
0.0
 10
254.7999876661774
 20
-125.5771413574946
 30
0.0
 10
254.7999876661774
 20
-131.0999833005584
 30
0.0
 10
254.7999876661774
 20
-136.622825243622
 30
0.0
 10
259.2771608852885
 20
-141.0999985758361
 30
0.0
 10
264.8000026888336
 20
-141.0999985758361
 30
0.0
 10
270.3228444923786
 20
-141.0999985758361
 30
0.0
 10
274.8000177114897
 20
-136.622825243622
 30
0.0
 10
274.8000177114897
 20
-131.0999833005584
 30
0.0
 10
274.8000177114897
 20
-125.5771413574946
 30
0.0
 10
270.3228444923786
 20
-121.0999680252805
 30
0.0
 10
264.8000026888336
 20
-121.0999680252805
 30
0.0
  0
POLYLINE
  5
5A
330
46
100
AcDbEntity
  8
inside_cut
 62
     1
420
 16711680
370
     9
100
AcDb2dPolyline
 66
     1
 10
0.0
 20
0.0
 30
0.0
  0
VERTEX
  5
5B
330
5A
100
AcDbEntity
  8
inside_cut
 62
     1
420
 16711680
370
     9
100
AcDbVertex
100
AcDb2dVertex
 10
111.3000454938326
 20
-229.4999713315141
 30
0.0
  0
VERTEX
  5
5C
330
5A
100
AcDbEntity
  8
inside_cut
 62
     1
420
 16711680
370
     9
100
AcDbVertex
100
AcDb2dVertex
 10
127.2999989745287
 20
-229.4999713315141
 30
0.0
  0
VERTEX
  5
5D
330
5A
100
AcDbEntity
  8
inside_cut
 62
     1
420
 16711680
370
     9
100
AcDbVertex
100
AcDb2dVertex
 10
127.2999989745287
 20
-227.6999932764084
 30
0.0
  0
VERTEX
  5
5E
330
5A
100
AcDbEntity
  8
inside_cut
 62
     1
420
 16711680
370
     9
100
AcDbVertex
100
AcDb2dVertex
 10
111.3000454938326
 20
-227.6999932764084
 30
0.0
  0
VERTEX
  5
5F
330
5A
100
AcDbEntity
  8
inside_cut
 62
     1
420
 16711680
370
     9
100
AcDbVertex
100
AcDb2dVertex
 10
111.3000454938326
 20
-229.4999713315141
 30
0.0
  0
SEQEND
  5
60
330
5A
100
AcDbEntity
  8
inside_cut
 62
     1
420
 16711680
370
     9
  0
POLYLINE
  5
61
330
46
100
AcDbEntity
  8
inside_cut
 62
     1
420
 16711680
370
     9
100
AcDb2dPolyline
 66
     1
 10
0.0
 20
0.0
 30
0.0
  0
VERTEX
  5
62
330
61
100
AcDbEntity
  8
inside_cut
 62
     1
420
 16711680
370
     9
100
AcDbVertex
100
AcDb2dVertex
 10
81.3000004258642
 20
-229.4999713315141
 30
0.0
  0
VERTEX
  5
63
330
61
100
AcDbEntity
  8
inside_cut
 62
     1
420
 16711680
370
     9
100
AcDbVertex
100
AcDb2dVertex
 10
97.30002446211401
 20
-229.4999713315141
 30
0.0
  0
VERTEX
  5
64
330
61
100
AcDbEntity
  8
inside_cut
 62
     1
420
 16711680
370
     9
100
AcDbVertex
100
AcDb2dVertex
 10
97.30002446211401
 20
-227.6999932764084
 30
0.0
  0
VERTEX
  5
65
330
61
100
AcDbEntity
  8
inside_cut
 62
     1
420
 16711680
370
     9
100
AcDbVertex
100
AcDb2dVertex
 10
81.3000004258642
 20
-227.6999932764084
 30
0.0
  0
VERTEX
  5
66
330
61
100
AcDbEntity
  8
inside_cut
 62
     1
420
 16711680
370
     9
100
AcDbVertex
100
AcDb2dVertex
 10
81.3000004258642
 20
-229.4999713315141
 30
0.0
  0
SEQEND
  5
67
330
61
100
AcDbEntity
  8
inside_cut
 62
     1
420
 16711680
370
     9
  0
POLYLINE
  5
68
330
46
100
AcDbEntity
  8
inside_cut
 62
     1
420
 16711680
370
     9
100
AcDb2dPolyline
 66
     1
 10
0.0
 20
0.0
 30
0.0
  0
VERTEX
  5
69
330
68
100
AcDbEntity
  8
inside_cut
 62
     1
420
 16711680
370
     9
100
AcDbVertex
100
AcDb2dVertex
 10
447.2999971103972
 20
-229.4999713315141
 30
0.0
  0
VERTEX
  5
6A
330
68
100
AcDbEntity
  8
inside_cut
 62
     1
420
 16711680
370
     9
100
AcDbVertex
100
AcDb2dVertex
 10
463.2999862730642
 20
-229.4999713315141
 30
0.0
  0
VERTEX
  5
6B
330
68
100
AcDbEntity
  8
inside_cut
 62
     1
420
 16711680
370
     9
100
AcDbVertex
100
AcDb2dVertex
 10
463.2999862730642
 20
-227.6999932764084
 30
0.0
  0
VERTEX
  5
6C
330
68
100
AcDbEntity
  8
inside_cut
 62
     1
420
 16711680
370
     9
100
AcDbVertex
100
AcDb2dVertex
 10
447.2999971103972
 20
-227.6999932764084
 30
0.0
  0
VERTEX
  5
6D
330
68
100
AcDbEntity
  8
inside_cut
 62
     1
420
 16711680
370
     9
100
AcDbVertex
100
AcDb2dVertex
 10
447.2999971103972
 20
-229.4999713315141
 30
0.0
  0
SEQEND
  5
6E
330
68
100
AcDbEntity
  8
inside_cut
 62
     1
420
 16711680
370
     9
  0
POLYLINE
  5
6F
330
46
100
AcDbEntity
  8
inside_cut
 62
     1
420
 16711680
370
     9
100
AcDb2dPolyline
 66
     1
 10
0.0
 20
0.0
 30
0.0
  0
VERTEX
  5
70
330
6F
100
AcDbEntity
  8
inside_cut
 62
     1
420
 16711680
370
     9
100
AcDbVertex
100
AcDb2dVertex
 10
512.3000082052585
 20
-229.4999713315141
 30
0.0
  0
VERTEX
  5
71
330
6F
100
AcDbEntity
  8
inside_cut
 62
     1
420
 16711680
370
     9
100
AcDbVertex
100
AcDb2dVertex
 10
528.2999620901472
 20
-229.4999713315141
 30
0.0
  0
VERTEX
  5
72
330
6F
100
AcDbEntity
  8
inside_cut
 62
     1
420
 16711680
370
     9
100
AcDbVertex
100
AcDb2dVertex
 10
528.2999620901472
 20
-227.6999932764084
 30
0.0
  0
VERTEX
  5
73
330
6F
100
AcDbEntity
  8
inside_cut
 62
     1
420
 16711680
370
     9
100
AcDbVertex
100
AcDb2dVertex
 10
512.3000082052585
 20
-227.6999932764084
 30
0.0
  0
VERTEX
  5
74
330
6F
100
AcDbEntity
  8
inside_cut
 62
     1
420
 16711680
370
     9
100
AcDbVertex
100
AcDb2dVertex
 10
512.3000082052585
 20
-229.4999713315141
 30
0.0
  0
SEQEND
  5
75
330
6F
100
AcDbEntity
  8
inside_cut
 62
     1
420
 16711680
370
     9
  0
POLYLINE
  5
76
330
46
100
AcDbEntity
  8
inside_cut
 62
     1
420
 16711680
370
     9
100
AcDb2dPolyline
 66
     1
 10
0.0
 20
0.0
 30
0.0
  0
VERTEX
  5
77
330
76
100
AcDbEntity
  8
inside_cut
 62
     1
420
 16711680
370
     9
100
AcDbVertex
100
AcDb2dVertex
 10
482.3000329349805
 20
-229.4999713315141
 30
0.0
  0
VERTEX
  5
78
330
76
100
AcDbEntity
  8
inside_cut
 62
     1
420
 16711680
370
     9
100
AcDbVertex
100
AcDb2dVertex
 10
498.2999868198694
 20
-229.4999713315141
 30
0.0
  0
VERTEX
  5
79
330
76
100
AcDbEntity
  8
inside_cut
 62
     1
420
 16711680
370
     9
100
AcDbVertex
100
AcDb2dVertex
 10
498.2999868198694
 20
-227.6999932764084
 30
0.0
  0
VERTEX
  5
7A
330
76
100
AcDbEntity
  8
inside_cut
 62
     1
420
 16711680
370
     9
100
AcDbVertex
100
AcDb2dVertex
 10
482.3000329349805
 20
-227.6999932764084
 30
0.0
  0
VERTEX
  5
7B
330
76
100
AcDbEntity
  8
inside_cut
 62
     1
420
 16711680
370
     9
100
AcDbVertex
100
AcDb2dVertex
 10
482.3000329349805
 20
-229.4999713315141
 30
0.0
  0
SEQEND
  5
7C
330
76
100
AcDbEntity
  8
inside_cut
 62
     1
420
 16711680
370
     9
  0
SPLINE
  5
7D
330
46
100
AcDbEntity
  8
inside_cut
 62
     1
420
 16711680
370
     9
100
AcDbSpline
210
0.0
220
0.0
230
1.0
 70
    11
 71
     3
 72
    17
 73
    13
 74
     0
 42
0.0000000001
 43
0.0000000001
 12
1.0
 22
0.0
 32
0.0
 13
1.0
 23
0.0
 33
0.0
 40
0.0
 40
0.0
 40
0.0
 40
0.0
 40
1.0
 40
1.0
 40
1.0
 40
2.0
 40
2.0
 40
2.0
 40
3.0
 40
3.0
 40
3.0
 40
4.0
 40
4.0
 40
4.0
 40
4.0
 10
344.7999817589752
 20
-316.1000013098642
 30
0.0
 10
339.2771399554302
 20
-316.1000013098642
 30
0.0
 10
334.799966736319
 20
-320.577174642078
 30
0.0
 10
334.799966736319
 20
-326.1000165851419
 30
0.0
 10
334.799966736319
 20
-331.6228585282051
 30
0.0
 10
339.2771399554302
 20
-336.1000318604196
 30
0.0
 10
344.7999817589752
 20
-336.1000318604196
 30
0.0
 10
350.3228235625202
 20
-336.1000318604196
 30
0.0
 10
354.8000057446332
 20
-331.6228585282051
 30
0.0
 10
354.8000057446332
 20
-326.1000165851419
 30
0.0
 10
354.8000057446332
 20
-320.577174642078
 30
0.0
 10
350.3228235625202
 20
-316.1000013098642
 30
0.0
 10
344.7999817589752
 20
-316.1000013098642
 30
0.0
  0
POLYLINE
  5
7E
330
46
100
AcDbEntity
  8
inside_cut
 62
     1
420
 16711680
370
     9
100
AcDb2dPolyline
 66
     1
 10
0.0
 20
0.0
 30
0.0
  0
VERTEX
  5
7F
330
7E
100
AcDbEntity
  8
inside_cut
 62
     1
420
 16711680
370
     9
100
AcDbVertex
100
AcDb2dVertex
 10
417.3000218401193
 20
-229.4999713315141
 30
0.0
  0
VERTEX
  5
80
330
7E
100
AcDbEntity
  8
inside_cut
 62
     1
420
 16711680
370
     9
100
AcDbVertex
100
AcDb2dVertex
 10
433.3000110027863
 20
-229.4999713315141
 30
0.0
  0
VERTEX
  5
81
330
7E
100
AcDbEntity
  8
inside_cut
 62
     1
420
 16711680
370
     9
100
AcDbVertex
100
AcDb2dVertex
 10
433.3000110027863
 20
-227.6999932764084
 30
0.0
  0
VERTEX
  5
82
330
7E
100
AcDbEntity
  8
inside_cut
 62
     1
420
 16711680
370
     9
100
AcDbVertex
100
AcDb2dVertex
 10
417.3000218401193
 20
-227.6999932764084
 30
0.0
  0
VERTEX
  5
83
330
7E
100
AcDbEntity
  8
inside_cut
 62
     1
420
 16711680
370
     9
100
AcDbVertex
100
AcDb2dVertex
 10
417.3000218401193
 20
-229.4999713315141
 30
0.0
  0
SEQEND
  5
84
330
7E
100
AcDbEntity
  8
inside_cut
 62
     1
420
 16711680
370
     9
  0
SPLINE
  5
85
330
46
100
AcDbEntity
  8
inside_cut
 62
     1
420
 16711680
370
     9
100
AcDbSpline
210
0.0
220
0.0
230
1.0
 70
    11
 71
     3
 72
    17
 73
    13
 74
     0
 42
0.0000000001
 43
0.0000000001
 12
1.0
 22
0.0
 32
0.0
 13
1.0
 23
0.0
 33
0.0
 40
0.0
 40
0.0
 40
0.0
 40
0.0
 40
1.0
 40
1.0
 40
1.0
 40
2.0
 40
2.0
 40
2.0
 40
3.0
 40
3.0
 40
3.0
 40
4.0
 40
4.0
 40
4.0
 40
4.0
 10
344.7999817589752
 20
-121.0999680252805
 30
0.0
 10
339.2771399554302
 20
-121.0999680252805
 30
0.0
 10
334.799966736319
 20
-125.5771413574946
 30
0.0
 10
334.799966736319
 20
-131.0999833005584
 30
0.0
 10
334.799966736319
 20
-136.622825243622
 30
0.0
 10
339.2771399554302
 20
-141.0999985758361
 30
0.0
 10
344.7999817589752
 20
-141.0999985758361
 30
0.0
 10
350.3228235625202
 20
-141.0999985758361
 30
0.0
 10
354.8000057446332
 20
-136.622825243622
 30
0.0
 10
354.8000057446332
 20
-131.0999833005584
 30
0.0
 10
354.8000057446332
 20
-125.5771413574946
 30
0.0
 10
350.3228235625202
 20
-121.0999680252805
 30
0.0
 10
344.7999817589752
 20
-121.0999680252805
 30
0.0
  0
ENDBLK
  5
49
330
46
100
AcDbEntity
  8
0
100
AcDbBlockEnd
  0
BLOCK
  5
A1
330
9F
100
AcDbEntity
  8
0
100
AcDbBlockBegin
  2
block 4
 70
     0
 10
0.0
 20
0.0
 30
0.0
  3
block 4
  1

  0
INSERT
  5
A4
330
9F
100
AcDbEntity
  8
inside_engraving
100
AcDbBlockReference
  2
block 5
 10
0.0
 20
0.0
 30
0.0
  0
POLYLINE
  5
DB
330
9F
100
AcDbEntity
  8
inside_engraving
 62
     5
420
      255
370
     9
100
AcDb2dPolyline
 66
     1
 10
0.0
 20
0.0
 30
0.0
  0
VERTEX
  5
DC
330
DB
100
AcDbEntity
  8
inside_engraving
 62
     5
420
      255
370
     9
100
AcDbVertex
100
AcDb2dVertex
 10
205.8000022496045
 20
-99.59999691954461
 30
0.0
  0
VERTEX
  5
DD
330
DB
100
AcDbEntity
  8
inside_engraving
 62
     5
420
      255
370
     9
100
AcDbVertex
100
AcDb2dVertex
 10
403.79999239905
 20
-99.59999691954461
 30
0.0
  0
SEQEND
  5
DE
330
DB
100
AcDbEntity
  8
inside_engraving
 62
     5
420
      255
370
     9
  0
POLYLINE
  5
DF
330
9F
100
AcDbEntity
  8
inside_engraving
 62
     5
420
      255
370
     9
100
AcDb2dPolyline
 66
     1
 10
0.0
 20
0.0
 30
0.0
  0
VERTEX
  5
E0
330
DF
100
AcDbEntity
  8
inside_engraving
 62
     5
420
      255
370
     9
100
AcDbVertex
100
AcDb2dVertex
 10
205.8000022496045
 20
-357.6000029661554
 30
0.0
  0
VERTEX
  5
E1
330
DF
100
AcDbEntity
  8
inside_engraving
 62
     5
420
      255
370
     9
100
AcDbVertex
100
AcDb2dVertex
 10
403.79999239905
 20
-357.6000029661554
 30
0.0
  0
SEQEND
  5
E2
330
DF
100
AcDbEntity
  8
inside_engraving
 62
     5
420
      255
370
     9
  0
ENDBLK
  5
A2
330
9F
100
AcDbEntity
  8
0
100
AcDbBlockEnd
  0
BLOCK
  5
A5
330
A3
100
AcDbEntity
  8
0
100
AcDbBlockBegin
  2
block 5
 70
     0
 10
0.0
 20
0.0
 30
0.0
  3
block 5
  1

  0
POLYLINE
  5
A7
330
A3
100
AcDbEntity
  8
inside_engraving
 62
     5
420
      255
370
     9
100
AcDb2dPolyline
 66
     1
 10
0.0
 20
0.0
 30
0.0
  0
VERTEX
  5
A8
330
A7
100
AcDbEntity
  8
inside_engraving
 62
     5
420
      255
370
     9
100
AcDbVertex
100
AcDb2dVertex
 10
204.7999831084505
 20
-181.600016343489
 30
0.0
  0
VERTEX
  5
A9
330
A7
100
AcDbEntity
  8
inside_engraving
 62
     5
420
      255
370
     9
100
AcDbVertex
100
AcDb2dVertex
 10
204.8000183862274
 20
-163.5999888479888
 30
0.0
  0
VERTEX
  5
AA
330
A7
100
AcDbEntity
  8
inside_engraving
 62
     5
420
      255
370
     9
100
AcDbVertex
100
AcDb2dVertex
 10
404.8000115654664
 20
-163.5999888479888
 30
0.0
  0
VERTEX
  5
AB
330
A7
100
AcDbEntity
  8
inside_engraving
 62
     5
420
      255
370
     9
100
AcDbVertex
100
AcDb2dVertex
 10
404.8000115654664
 20
-181.600016343489
 30
0.0
  0
SEQEND
  5
AC
330
A7
100
AcDbEntity
  8
inside_engraving
 62
     5
420
      255
370
     9
  0
POLYLINE
  5
AD
330
A3
100
AcDbEntity
  8
inside_engraving
 62
     5
420
      255
370
     9
100
AcDb2dPolyline
 66
     1
 10
0.0
 20
0.0
 30
0.0
  0
VERTEX
  5
AE
330
AD
100
AcDbEntity
  8
inside_engraving
 62
     5
420
      255
370
     9
100
AcDbVertex
100
AcDb2dVertex
 10
204.7999831084505
 20
-205.5999824486
 30
0.0
  0
VERTEX
  5
AF
330
AD
100
AcDbEntity
  8
inside_engraving
 62
     5
420
      255
370
     9
100
AcDbVertex
100
AcDb2dVertex
 10
204.7999831084505
 20
-251.6000174371003
 30
0.0
  0
SEQEND
  5
B0
330
AD
100
AcDbEntity
  8
inside_engraving
 62
     5
420
      255
370
     9
  0
POLYLINE
  5
B1
330
A3
100
AcDbEntity
  8
inside_engraving
 62
     5
420
      255
370
     9
100
AcDb2dPolyline
 66
     1
 10
0.0
 20
0.0
 30
0.0
  0
VERTEX
  5
B2
330
B1
100
AcDbEntity
  8
inside_engraving
 62
     5
420
      255
370
     9
100
AcDbVertex
100
AcDb2dVertex
 10
204.7999831084505
 20
-275.5999835422114
 30
0.0
  0
VERTEX
  5
B3
330
B1
100
AcDbEntity
  8
inside_engraving
 62
     5
420
      255
370
     9
100
AcDbVertex
100
AcDb2dVertex
 10
204.8000183862274
 20
-293.6000110377113
 30
0.0
  0
VERTEX
  5
B4
330
B1
100
AcDbEntity
  8
inside_engraving
 62
     5
420
      255
370
     9
100
AcDbVertex
100
AcDb2dVertex
 10
404.8000115654664
 20
-293.6000110377113
 30
0.0
  0
VERTEX
  5
B5
330
B1
100
AcDbEntity
  8
inside_engraving
 62
     5
420
      255
370
     9
100
AcDbVertex
100
AcDb2dVertex
 10
404.8000115654664
 20
-275.5997718755443
 30
0.0
  0
SEQEND
  5
B6
330
B1
100
AcDbEntity
  8
inside_engraving
 62
     5
420
      255
370
     9
  0
POLYLINE
  5
B7
330
A3
100
AcDbEntity
  8
inside_engraving
 62
     5
420
      255
370
     9
100
AcDb2dPolyline
 66
     1
 10
0.0
 20
0.0
 30
0.0
  0
VERTEX
  5
B8
330
B7
100
AcDbEntity
  8
inside_engraving
 62
     5
420
      255
370
     9
100
AcDbVertex
100
AcDb2dVertex
 10
404.8000115654664
 20
-251.5998057704332
 30
0.0
  0
VERTEX
  5
B9
330
B7
100
AcDbEntity
  8
inside_engraving
 62
     5
420
      255
370
     9
100
AcDbVertex
100
AcDb2dVertex
 10
404.8000115654664
 20
-205.5999824486
 30
0.0
  0
SEQEND
  5
BA
330
B7
100
AcDbEntity
  8
inside_engraving
 62
     5
420
      255
370
     9
  0
INSERT
  5
BC
330
A3
100
AcDbEntity
  8
inside_engraving
100
AcDbBlockReference
  2
block 6
 10
0.0
 20
0.0
 30
0.0
  0
POLYLINE
  5
D3
330
A3
100
AcDbEntity
  8
inside_engraving
 62
     5
420
      255
370
     9
100
AcDb2dPolyline
 66
     1
 10
0.0
 20
0.0
 30
0.0
  0
VERTEX
  5
D4
330
D3
100
AcDbEntity
  8
inside_engraving
 62
     5
420
      255
370
     9
100
AcDbVertex
100
AcDb2dVertex
 10
136.8000220654962
 20
-183.5999841207665
 30
0.0
  0
VERTEX
  5
D5
330
D3
100
AcDbEntity
  8
inside_engraving
 62
     5
420
      255
370
     9
100
AcDbVertex
100
AcDb2dVertex
 10
136.8000220654962
 20
-273.5999804871553
 30
0.0
  0
SEQEND
  5
D6
330
D3
100
AcDbEntity
  8
inside_engraving
 62
     5
420
      255
370
     9
  0
POLYLINE
  5
D7
330
A3
100
AcDbEntity
  8
inside_engraving
 62
     5
420
      255
370
     9
100
AcDb2dPolyline
 66
     1
 10
0.0
 20
0.0
 30
0.0
  0
VERTEX
  5
D8
330
D7
100
AcDbEntity
  8
inside_engraving
 62
     5
420
      255
370
     9
100
AcDbVertex
100
AcDb2dVertex
 10
472.800009604022
 20
-183.5999841207665
 30
0.0
  0
VERTEX
  5
D9
330
D7
100
AcDbEntity
  8
inside_engraving
 62
     5
420
      255
370
     9
100
AcDbVertex
100
AcDb2dVertex
 10
472.800009604022
 20
-273.5999804871553
 30
0.0
  0
SEQEND
  5
DA
330
D7
100
AcDbEntity
  8
inside_engraving
 62
     5
420
      255
370
     9
  0
ENDBLK
  5
A6
330
A3
100
AcDbEntity
  8
0
100
AcDbBlockEnd
  0
BLOCK
  5
BD
330
BB
100
AcDbEntity
  8
0
100
AcDbBlockBegin
  2
block 6
 70
     0
 10
0.0
 20
0.0
 30
0.0
  3
block 6
  1

  0
INSERT
  5
C0
330
BB
100
AcDbEntity
  8
inside_engraving
100
AcDbBlockReference
  2
block 7
 10
0.0
 20
0.0
 30
0.0
  0
INSERT
  5
CA
330
BB
100
AcDbEntity
  8
inside_engraving
100
AcDbBlockReference
  2
block 9
 10
0.0
 20
0.0
 30
0.0
  0
ENDBLK
  5
BE
330
BB
100
AcDbEntity
  8
0
100
AcDbBlockEnd
  0
BLOCK
  5
C1
330
BF
100
AcDbEntity
  8
0
100
AcDbBlockBegin
  2
block 7
 70
     0
 10
0.0
 20
0.0
 30
0.0
  3
block 7
  1

  0
SPLINE
  5
C3
330
BF
100
AcDbEntity
  8
inside_engraving
 62
     5
420
      255
370
     9
100
AcDbSpline
210
0.0
220
0.0
230
1.0
 70
    11
 71
     3
 72
    17
 73
    13
 74
     0
 42
0.0000000001
 43
0.0000000001
 12
1.0
 22
0.0
 32
0.0
 13
1.0
 23
0.0
 33
0.0
 40
0.0
 40
0.0
 40
0.0
 40
0.0
 40
1.0
 40
1.0
 40
1.0
 40
2.0
 40
2.0
 40
2.0
 40
3.0
 40
3.0
 40
3.0
 40
4.0
 40
4.0
 40
4.0
 40
4.0
 10
274.8000177114897
 20
-261.1000054902806
 30
0.0
 10
274.8000177114897
 20
-266.6228474333445
 30
0.0
 10
270.3228444923786
 20
-271.1000207655583
 30
0.0
 10
264.8000026888336
 20
-271.1000207655583
 30
0.0
 10
259.2771608852885
 20
-271.1000207655583
 30
0.0
 10
254.7999876661774
 20
-266.6228474333445
 30
0.0
 10
254.7999876661774
 20
-261.1000054902806
 30
0.0
 10
254.7999876661774
 20
-255.5771635472168
 30
0.0
 10
259.2771608852885
 20
-251.099990215003
 30
0.0
 10
264.8000026888336
 20
-251.099990215003
 30
0.0
 10
270.3228444923786
 20
-251.099990215003
 30
0.0
 10
274.8000177114897
 20
-255.5771635472168
 30
0.0
 10
274.8000177114897
 20
-261.1000054902806
 30
0.0
  0
INSERT
  5
C5
330
BF
100
AcDbEntity
  8
inside_engraving
100
AcDbBlockReference
  2
block 8
 10
0.0
 20
0.0
 30
0.0
  0
ENDBLK
  5
C2
330
BF
100
AcDbEntity
  8
0
100
AcDbBlockEnd
  0
BLOCK
  5
C6
330
C4
100
AcDbEntity
  8
0
100
AcDbBlockBegin
  2
block 8
 70
     0
 10
0.0
 20
0.0
 30
0.0
  3
block 8
  1

  0
SPLINE
  5
C8
330
C4
100
AcDbEntity
  8
inside_engraving
 62
     5
420
      255
370
     9
100
AcDbSpline
210
0.0
220
0.0
230
1.0
 70
    11
 71
     3
 72
    17
 73
    13
 74
     0
 42
0.0000000001
 43
0.0000000001
 12
1.0
 22
0.0
 32
0.0
 13
1.0
 23
0.0
 33
0.0
 40
0.0
 40
0.0
 40
0.0
 40
0.0
 40
1.0
 40
1.0
 40
1.0
 40
2.0
 40
2.0
 40
2.0
 40
3.0
 40
3.0
 40
3.0
 40
4.0
 40
4.0
 40
4.0
 40
4.0
 10
354.8000057446332
 20
-261.1000054902806
 30
0.0
 10
354.8000057446332
 20
-266.6228474333445
 30
0.0
 10
350.3228235625202
 20
-271.1000207655583
 30
0.0
 10
344.7999817589752
 20
-271.1000207655583
 30
0.0
 10
339.2771399554302
 20
-271.1000207655583
 30
0.0
 10
334.799966736319
 20
-266.6228474333445
 30
0.0
 10
334.799966736319
 20
-261.1000054902806
 30
0.0
 10
334.799966736319
 20
-255.5771635472168
 30
0.0
 10
339.2771399554302
 20
-251.099990215003
 30
0.0
 10
344.7999817589752
 20
-251.099990215003
 30
0.0
 10
350.3228235625202
 20
-251.099990215003
 30
0.0
 10
354.8000057446332
 20
-255.5771635472168
 30
0.0
 10
354.8000057446332
 20
-261.1000054902806
 30
0.0
  0
ENDBLK
  5
C7
330
C4
100
AcDbEntity
  8
0
100
AcDbBlockEnd
  0
BLOCK
  5
CB
330
C9
100
AcDbEntity
  8
0
100
AcDbBlockBegin
  2
block 9
 70
     0
 10
0.0
 20
0.0
 30
0.0
  3
block 9
  1

  0
SPLINE
  5
CD
330
C9
100
AcDbEntity
  8
inside_engraving
 62
     5
420
      255
370
     9
100
AcDbSpline
210
0.0
220
0.0
230
1.0
 70
    11
 71
     3
 72
    17
 73
    13
 74
     0
 42
0.0000000001
 43
0.0000000001
 12
1.0
 22
0.0
 32
0.0
 13
1.0
 23
0.0
 33
0.0
 40
0.0
 40
0.0
 40
0.0
 40
0.0
 40
1.0
 40
1.0
 40
1.0
 40
2.0
 40
2.0
 40
2.0
 40
3.0
 40
3.0
 40
3.0
 40
4.0
 40
4.0
 40
4.0
 40
4.0
 10
274.8000177114897
 20
-196.0999943954194
 30
0.0
 10
274.8000177114897
 20
-201.6228363384832
 30
0.0
 10
270.3228444923786
 20
-206.1000096706973
 30
0.0
 10
264.8000026888336
 20
-206.1000096706973
 30
0.0
 10
259.2771608852885
 20
-206.1000096706973
 30
0.0
 10
254.7999876661774
 20
-201.6228363384832
 30
0.0
 10
254.7999876661774
 20
-196.0999943954194
 30
0.0
 10
254.7999876661774
 20
-190.5771524523558
 30
0.0
 10
259.2771608852885
 20
-186.0999791201417
 30
0.0
 10
264.8000026888336
 20
-186.0999791201417
 30
0.0
 10
270.3228444923786
 20
-186.0999791201417
 30
0.0
 10
274.8000177114897
 20
-190.5771524523558
 30
0.0
 10
274.8000177114897
 20
-196.0999943954194
 30
0.0
  0
INSERT
  5
CF
330
C9
100
AcDbEntity
  8
inside_engraving
100
AcDbBlockReference
  2
block 10
 10
0.0
 20
0.0
 30
0.0
  0
ENDBLK
  5
CC
330
C9
100
AcDbEntity
  8
0
100
AcDbBlockEnd
  0
BLOCK
  5
D0
330
CE
100
AcDbEntity
  8
0
100
AcDbBlockBegin
  2
block 10
 70
     0
 10
0.0
 20
0.0
 30
0.0
  3
block 10
  1

  0
SPLINE
  5
D2
330
CE
100
AcDbEntity
  8
inside_engraving
 62
     5
420
      255
370
     9
100
AcDbSpline
210
0.0
220
0.0
230
1.0
 70
    11
 71
     3
 72
    17
 73
    13
 74
     0
 42
0.0000000001
 43
0.0000000001
 12
1.0
 22
0.0
 32
0.0
 13
1.0
 23
0.0
 33
0.0
 40
0.0
 40
0.0
 40
0.0
 40
0.0
 40
1.0
 40
1.0
 40
1.0
 40
2.0
 40
2.0
 40
2.0
 40
3.0
 40
3.0
 40
3.0
 40
4.0
 40
4.0
 40
4.0
 40
4.0
 10
354.8000057446332
 20
-196.0999943954194
 30
0.0
 10
354.8000057446332
 20
-201.6228363384832
 30
0.0
 10
350.3228235625202
 20
-206.1000096706973
 30
0.0
 10
344.7999817589752
 20
-206.1000096706973
 30
0.0
 10
339.2771399554302
 20
-206.1000096706973
 30
0.0
 10
334.799966736319
 20
-201.6228363384832
 30
0.0
 10
334.799966736319
 20
-196.0999943954194
 30
0.0
 10
334.799966736319
 20
-190.5771524523558
 30
0.0
 10
339.2771399554302
 20
-186.0999791201417
 30
0.0
 10
344.7999817589752
 20
-186.0999791201417
 30
0.0
 10
350.3228235625202
 20
-186.0999791201417
 30
0.0
 10
354.8000057446332
 20
-190.5771524523558
 30
0.0
 10
354.8000057446332
 20
-196.0999943954194
 30
0.0
  0
ENDBLK
  5
D1
330
CE
100
AcDbEntity
  8
0
100
AcDbBlockEnd
  0
BLOCK
  5
E6
330
E4
100
AcDbEntity
  8
0
100
AcDbBlockBegin
  2
block 11
 70
     0
 10
0.0
 20
0.0
 30
0.0
  3
block 11
  1

  0
POLYLINE
  5
E8
330
E4
100
AcDbEntity
  8
outside_cut
370
     0
100
AcDb2dPolyline
 66
     1
 10
0.0
 20
0.0
 30
0.0
  0
VERTEX
  5
E9
330
E8
100
AcDbEntity
  8
outside_cut
370
     0
100
AcDbVertex
100
AcDb2dVertex
 10
176.3000196688785
 20
-229.4999713315141
 30
0.0
  0
VERTEX
  5
EA
330
E8
100
AcDbEntity
  8
outside_cut
370
     0
100
AcDbVertex
100
AcDb2dVertex
 10
192.3000084273514
 20
-229.4999713315141
 30
0.0
  0
VERTEX
  5
EB
330
E8
100
AcDbEntity
  8
outside_cut
370
     0
100
AcDbVertex
100
AcDb2dVertex
 10
192.3000084273514
 20
-227.6999932764084
 30
0.0
  0
VERTEX
  5
EC
330
E8
100
AcDbEntity
  8
outside_cut
370
     0
100
AcDbVertex
100
AcDb2dVertex
 10
176.3000196688785
 20
-227.6999932764084
 30
0.0
  0
VERTEX
  5
ED
330
E8
100
AcDbEntity
  8
outside_cut
370
     0
100
AcDbVertex
100
AcDb2dVertex
 10
176.3000196688785
 20
-229.4999713315141
 30
0.0
  0
SEQEND
  5
EE
330
E8
100
AcDbEntity
  8
outside_cut
370
     0
  0
SPLINE
  5
EF
330
E4
100
AcDbEntity
  8
outside_cut
370
     0
100
AcDbSpline
210
0.0
220
0.0
230
1.0
 70
    11
 71
     3
 72
    17
 73
    13
 74
     0
 42
0.0000000001
 43
0.0000000001
 12
1.0
 22
0.0
 32
0.0
 13
1.0
 23
0.0
 33
0.0
 40
0.0
 40
0.0
 40
0.0
 40
0.0
 40
1.0
 40
1.0
 40
1.0
 40
2.0
 40
2.0
 40
2.0
 40
3.0
 40
3.0
 40
3.0
 40
4.0
 40
4.0
 40
4.0
 40
4.0
 10
264.8000026888336
 20
-316.1000013098642
 30
0.0
 10
259.2771608852885
 20
-316.1000013098642
 30
0.0
 10
254.7999876661774
 20
-320.577174642078
 30
0.0
 10
254.7999876661774
 20
-326.1000165851419
 30
0.0
 10
254.7999876661774
 20
-331.6228585282051
 30
0.0
 10
259.2771608852885
 20
-336.1000318604196
 30
0.0
 10
264.8000026888336
 20
-336.1000318604196
 30
0.0
 10
270.3228444923786
 20
-336.1000318604196
 30
0.0
 10
274.8000177114897
 20
-331.6228585282051
 30
0.0
 10
274.8000177114897
 20
-326.1000165851419
 30
0.0
 10
274.8000177114897
 20
-320.577174642078
 30
0.0
 10
270.3228444923786
 20
-316.1000013098642
 30
0.0
 10
264.8000026888336
 20
-316.1000013098642
 30
0.0
  0
SPLINE
  5
F0
330
E4
100
AcDbEntity
  8
outside_cut
370
     0
100
AcDbSpline
210
0.0
220
0.0
230
1.0
 70
    11
 71
     3
 72
    17
 73
    13
 74
     0
 42
0.0000000001
 43
0.0000000001
 12
1.0
 22
0.0
 32
0.0
 13
1.0
 23
0.0
 33
0.0
 40
0.0
 40
0.0
 40
0.0
 40
0.0
 40
1.0
 40
1.0
 40
1.0
 40
2.0
 40
2.0
 40
2.0
 40
3.0
 40
3.0
 40
3.0
 40
4.0
 40
4.0
 40
4.0
 40
4.0
 10
264.8000026888336
 20
-121.0999680252805
 30
0.0
 10
259.2771608852885
 20
-121.0999680252805
 30
0.0
 10
254.7999876661774
 20
-125.5771413574946
 30
0.0
 10
254.7999876661774
 20
-131.0999833005584
 30
0.0
 10
254.7999876661774
 20
-136.622825243622
 30
0.0
 10
259.2771608852885
 20
-141.0999985758361
 30
0.0
 10
264.8000026888336
 20
-141.0999985758361
 30
0.0
 10
270.3228444923786
 20
-141.0999985758361
 30
0.0
 10
274.8000177114897
 20
-136.622825243622
 30
0.0
 10
274.8000177114897
 20
-131.0999833005584
 30
0.0
 10
274.8000177114897
 20
-125.5771413574946
 30
0.0
 10
270.3228444923786
 20
-121.0999680252805
 30
0.0
 10
264.8000026888336
 20
-121.0999680252805
 30
0.0
  0
SPLINE
  5
F1
330
E4
100
AcDbEntity
  8
outside_cut
370
     0
100
AcDbSpline
210
0.0
220
0.0
230
1.0
 70
    11
 71
     3
 72
    17
 73
    13
 74
     0
 42
0.0000000001
 43
0.0000000001
 12
1.0
 22
0.0
 32
0.0
 13
1.0
 23
0.0
 33
0.0
 40
0.0
 40
0.0
 40
0.0
 40
0.0
 40
1.0
 40
1.0
 40
1.0
 40
2.0
 40
2.0
 40
2.0
 40
3.0
 40
3.0
 40
3.0
 40
4.0
 40
4.0
 40
4.0
 40
4.0
 10
344.7999817589752
 20
-316.1000013098642
 30
0.0
 10
339.2771399554302
 20
-316.1000013098642
 30
0.0
 10
334.7999314585422
 20
-320.577174642078
 30
0.0
 10
334.7999314585422
 20
-326.1000165851419
 30
0.0
 10
334.7999314585422
 20
-331.6228585282051
 30
0.0
 10
339.2771399554302
 20
-336.1000318604196
 30
0.0
 10
344.7999817589752
 20
-336.1000318604196
 30
0.0
 10
350.3228235625202
 20
-336.1000318604196
 30
0.0
 10
354.8000057446332
 20
-331.6228585282051
 30
0.0
 10
354.8000057446332
 20
-326.1000165851419
 30
0.0
 10
354.8000057446332
 20
-320.577174642078
 30
0.0
 10
350.3228235625202
 20
-316.1000013098642
 30
0.0
 10
344.7999817589752
 20
-316.1000013098642
 30
0.0
  0
POLYLINE
  5
F2
330
E4
100
AcDbEntity
  8
outside_cut
370
     0
100
AcDb2dPolyline
 66
     1
 10
0.0
 20
0.0
 30
0.0
  0
VERTEX
  5
F3
330
F2
100
AcDbEntity
  8
outside_cut
370
     0
100
AcDbVertex
100
AcDb2dVertex
 10
111.3000454938326
 20
-229.4999713315141
 30
0.0
  0
VERTEX
  5
F4
330
F2
100
AcDbEntity
  8
outside_cut
370
     0
100
AcDbVertex
100
AcDb2dVertex
 10
127.2999989745287
 20
-229.4999713315141
 30
0.0
  0
VERTEX
  5
F5
330
F2
100
AcDbEntity
  8
outside_cut
370
     0
100
AcDbVertex
100
AcDb2dVertex
 10
127.2999989745287
 20
-227.6999932764084
 30
0.0
  0
VERTEX
  5
F6
330
F2
100
AcDbEntity
  8
outside_cut
370
     0
100
AcDbVertex
100
AcDb2dVertex
 10
111.3000454938326
 20
-227.6999932764084
 30
0.0
  0
VERTEX
  5
F7
330
F2
100
AcDbEntity
  8
outside_cut
370
     0
100
AcDbVertex
100
AcDb2dVertex
 10
111.3000454938326
 20
-229.4999713315141
 30
0.0
  0
SEQEND
  5
F8
330
F2
100
AcDbEntity
  8
outside_cut
370
     0
  0
POLYLINE
  5
F9
330
E4
100
AcDbEntity
  8
outside_cut
370
     0
100
AcDb2dPolyline
 66
     1
 10
0.0
 20
0.0
 30
0.0
  0
VERTEX
  5
FA
330
F9
100
AcDbEntity
  8
outside_cut
370
     0
100
AcDbVertex
100
AcDb2dVertex
 10
146.3000451564638
 20
-229.4999713315141
 30
0.0
  0
VERTEX
  5
FB
330
F9
100
AcDbEntity
  8
outside_cut
370
     0
100
AcDbVertex
100
AcDb2dVertex
 10
162.3000027372028
 20
-229.4999713315141
 30
0.0
  0
VERTEX
  5
FC
330
F9
100
AcDbEntity
  8
outside_cut
370
     0
100
AcDbVertex
100
AcDb2dVertex
 10
162.3000027372028
 20
-227.6999932764084
 30
0.0
  0
VERTEX
  5
FD
330
F9
100
AcDbEntity
  8
outside_cut
370
     0
100
AcDbVertex
100
AcDb2dVertex
 10
146.3000451564638
 20
-227.6999932764084
 30
0.0
  0
VERTEX
  5
FE
330
F9
100
AcDbEntity
  8
outside_cut
370
     0
100
AcDbVertex
100
AcDb2dVertex
 10
146.3000451564638
 20
-229.4999713315141
 30
0.0
  0
SEQEND
  5
FF
330
F9
100
AcDbEntity
  8
outside_cut
370
     0
  0
POLYLINE
  5
100
330
E4
100
AcDbEntity
  8
outside_cut
370
     0
100
AcDb2dPolyline
 66
     1
 10
0.0
 20
0.0
 30
0.0
  0
VERTEX
  5
101
330
100
100
AcDbEntity
  8
outside_cut
370
     0
100
AcDbVertex
100
AcDb2dVertex
 10
81.3000004258642
 20
-229.4999713315141
 30
0.0
  0
VERTEX
  5
102
330
100
100
AcDbEntity
  8
outside_cut
370
     0
100
AcDbVertex
100
AcDb2dVertex
 10
97.30002446211401
 20
-229.4999713315141
 30
0.0
  0
VERTEX
  5
103
330
100
100
AcDbEntity
  8
outside_cut
370
     0
100
AcDbVertex
100
AcDb2dVertex
 10
97.30002446211401
 20
-227.6999932764084
 30
0.0
  0
VERTEX
  5
104
330
100
100
AcDbEntity
  8
outside_cut
370
     0
100
AcDbVertex
100
AcDb2dVertex
 10
81.3000004258642
 20
-227.6999932764084
 30
0.0
  0
VERTEX
  5
105
330
100
100
AcDbEntity
  8
outside_cut
370
     0
100
AcDbVertex
100
AcDb2dVertex
 10
81.3000004258642
 20
-229.4999713315141
 30
0.0
  0
SEQEND
  5
106
330
100
100
AcDbEntity
  8
outside_cut
370
     0
  0
POLYLINE
  5
107
330
E4
100
AcDbEntity
  8
outside_cut
370
     0
100
AcDb2dPolyline
 66
     1
 10
0.0
 20
0.0
 30
0.0
  0
VERTEX
  5
108
330
107
100
AcDbEntity
  8
outside_cut
370
     0
100
AcDbVertex
100
AcDb2dVertex
 10
512.3000082052585
 20
-229.4999713315141
 30
0.0
  0
VERTEX
  5
109
330
107
100
AcDbEntity
  8
outside_cut
370
     0
100
AcDbVertex
100
AcDb2dVertex
 10
528.2999620901472
 20
-229.4999713315141
 30
0.0
  0
VERTEX
  5
10A
330
107
100
AcDbEntity
  8
outside_cut
370
     0
100
AcDbVertex
100
AcDb2dVertex
 10
528.2999620901472
 20
-227.6999932764084
 30
0.0
  0
VERTEX
  5
10B
330
107
100
AcDbEntity
  8
outside_cut
370
     0
100
AcDbVertex
100
AcDb2dVertex
 10
512.3000082052585
 20
-227.6999932764084
 30
0.0
  0
VERTEX
  5
10C
330
107
100
AcDbEntity
  8
outside_cut
370
     0
100
AcDbVertex
100
AcDb2dVertex
 10
512.3000082052585
 20
-229.4999713315141
 30
0.0
  0
SEQEND
  5
10D
330
107
100
AcDbEntity
  8
outside_cut
370
     0
  0
SPLINE
  5
10E
330
E4
100
AcDbEntity
  8
outside_cut
370
     0
100
AcDbSpline
210
0.0
220
0.0
230
1.0
 70
    11
 71
     3
 72
    17
 73
    13
 74
     0
 42
0.0000000001
 43
0.0000000001
 12
1.0
 22
0.0
 32
0.0
 13
1.0
 23
0.0
 33
0.0
 40
0.0
 40
0.0
 40
0.0
 40
0.0
 40
1.0
 40
1.0
 40
1.0
 40
2.0
 40
2.0
 40
2.0
 40
3.0
 40
3.0
 40
3.0
 40
4.0
 40
4.0
 40
4.0
 40
4.0
 10
344.7999817589752
 20
-121.0999680252805
 30
0.0
 10
339.2771399554302
 20
-121.0999680252805
 30
0.0
 10
334.7999314585422
 20
-125.5771413574946
 30
0.0
 10
334.7999314585422
 20
-131.0999833005584
 30
0.0
 10
334.7999314585422
 20
-136.622825243622
 30
0.0
 10
339.2771399554302
 20
-141.0999985758361
 30
0.0
 10
344.7999817589752
 20
-141.0999985758361
 30
0.0
 10
350.3228235625202
 20
-141.0999985758361
 30
0.0
 10
354.8000057446332
 20
-136.622825243622
 30
0.0
 10
354.8000057446332
 20
-131.0999833005584
 30
0.0
 10
354.8000057446332
 20
-125.5771413574946
 30
0.0
 10
350.3228235625202
 20
-121.0999680252805
 30
0.0
 10
344.7999817589752
 20
-121.0999680252805
 30
0.0
  0
POLYLINE
  5
10F
330
E4
100
AcDbEntity
  8
outside_cut
370
     0
100
AcDb2dPolyline
 66
     1
 10
0.0
 20
0.0
 30
0.0
  0
VERTEX
  5
110
330
10F
100
AcDbEntity
  8
outside_cut
370
     0
100
AcDbVertex
100
AcDb2dVertex
 10
482.3000329349805
 20
-229.4999713315141
 30
0.0
  0
VERTEX
  5
111
330
10F
100
AcDbEntity
  8
outside_cut
370
     0
100
AcDbVertex
100
AcDb2dVertex
 10
498.2999868198694
 20
-229.4999713315141
 30
0.0
  0
VERTEX
  5
112
330
10F
100
AcDbEntity
  8
outside_cut
370
     0
100
AcDbVertex
100
AcDb2dVertex
 10
498.2999868198694
 20
-227.6999932764084
 30
0.0
  0
VERTEX
  5
113
330
10F
100
AcDbEntity
  8
outside_cut
370
     0
100
AcDbVertex
100
AcDb2dVertex
 10
482.3000329349805
 20
-227.6999932764084
 30
0.0
  0
VERTEX
  5
114
330
10F
100
AcDbEntity
  8
outside_cut
370
     0
100
AcDbVertex
100
AcDb2dVertex
 10
482.3000329349805
 20
-229.4999713315141
 30
0.0
  0
SEQEND
  5
115
330
10F
100
AcDbEntity
  8
outside_cut
370
     0
  0
POLYLINE
  5
116
330
E4
100
AcDbEntity
  8
outside_cut
370
     0
100
AcDb2dPolyline
 66
     1
 10
0.0
 20
0.0
 30
0.0
  0
VERTEX
  5
117
330
116
100
AcDbEntity
  8
outside_cut
370
     0
100
AcDbVertex
100
AcDb2dVertex
 10
447.2999971103972
 20
-229.4999713315141
 30
0.0
  0
VERTEX
  5
118
330
116
100
AcDbEntity
  8
outside_cut
370
     0
100
AcDbVertex
100
AcDb2dVertex
 10
463.2999862730642
 20
-229.4999713315141
 30
0.0
  0
VERTEX
  5
119
330
116
100
AcDbEntity
  8
outside_cut
370
     0
100
AcDbVertex
100
AcDb2dVertex
 10
463.2999862730642
 20
-227.6999932764084
 30
0.0
  0
VERTEX
  5
11A
330
116
100
AcDbEntity
  8
outside_cut
370
     0
100
AcDbVertex
100
AcDb2dVertex
 10
447.2999971103972
 20
-227.6999932764084
 30
0.0
  0
VERTEX
  5
11B
330
116
100
AcDbEntity
  8
outside_cut
370
     0
100
AcDbVertex
100
AcDb2dVertex
 10
447.2999971103972
 20
-229.4999713315141
 30
0.0
  0
SEQEND
  5
11C
330
116
100
AcDbEntity
  8
outside_cut
370
     0
  0
POLYLINE
  5
11D
330
E4
100
AcDbEntity
  8
outside_cut
370
     0
100
AcDb2dPolyline
 66
     1
 10
0.0
 20
0.0
 30
0.0
  0
VERTEX
  5
11E
330
11D
100
AcDbEntity
  8
outside_cut
370
     0
100
AcDbVertex
100
AcDb2dVertex
 10
417.3000218401193
 20
-229.4999713315141
 30
0.0
  0
VERTEX
  5
11F
330
11D
100
AcDbEntity
  8
outside_cut
370
     0
100
AcDbVertex
100
AcDb2dVertex
 10
433.3000110027863
 20
-229.4999713315141
 30
0.0
  0
VERTEX
  5
120
330
11D
100
AcDbEntity
  8
outside_cut
370
     0
100
AcDbVertex
100
AcDb2dVertex
 10
433.3000110027863
 20
-227.6999932764084
 30
0.0
  0
VERTEX
  5
121
330
11D
100
AcDbEntity
  8
outside_cut
370
     0
100
AcDbVertex
100
AcDb2dVertex
 10
417.3000218401193
 20
-227.6999932764084
 30
0.0
  0
VERTEX
  5
122
330
11D
100
AcDbEntity
  8
outside_cut
370
     0
100
AcDbVertex
100
AcDb2dVertex
 10
417.3000218401193
 20
-229.4999713315141
 30
0.0
  0
SEQEND
  5
123
330
11D
100
AcDbEntity
  8
outside_cut
370
     0
  0
ENDBLK
  5
E7
330
E4
100
AcDbEntity
  8
0
100
AcDbBlockEnd
  0
ENDSEC
  0
SECTION
  2
ENTITIES
  0
INSERT
  5
43
330
1F
100
AcDbEntity
  8
inside_cut
100
AcDbBlockReference
  2
block 2
 10
0.0
 20
0.0
 30
0.0
  0
INSERT
  5
A0
330
1F
100
AcDbEntity
  8
inside_engraving
100
AcDbBlockReference
  2
block 4
 10
0.0
 20
0.0
 30
0.0
  0
INSERT
  5
E5
330
1F
100
AcDbEntity
  8
outside_cut
100
AcDbBlockReference
  2
block 11
 10
0.0
 20
0.0
 30
0.0
  0
SPLINE
  5
124
330
1F
100
AcDbEntity
  8
outside_cut
 62
     1
420
 16711680
370
     9
100
AcDbSpline
210
0.0
220
0.0
230
1.0
 70
    11
 71
     3
 72
   281
 73
   277
 74
     0
 42
0.0000000001
 43
0.0000000001
 12
1.0
 22
0.0
 32
0.0
 13
1.0
 23
0.0
 33
0.0
 40
0.0
 40
0.0
 40
0.0
 40
0.0
 40
1.0
 40
1.0
 40
1.0
 40
2.0
 40
2.0
 40
2.0
 40
3.0
 40
3.0
 40
3.0
 40
4.0
 40
4.0
 40
4.0
 40
5.0
 40
5.0
 40
5.0
 40
6.0
 40
6.0
 40
6.0
 40
7.0
 40
7.0
 40
7.0
 40
8.0
 40
8.0
 40
8.0
 40
9.0
 40
9.0
 40
9.0
 40
10.0
 40
10.0
 40
10.0
 40
11.0
 40
11.0
 40
11.0
 40
12.0
 40
12.0
 40
12.0
 40
13.0
 40
13.0
 40
13.0
 40
14.0
 40
14.0
 40
14.0
 40
15.0
 40
15.0
 40
15.0
 40
16.0
 40
16.0
 40
16.0
 40
17.0
 40
17.0
 40
17.0
 40
18.0
 40
18.0
 40
18.0
 40
19.0
 40
19.0
 40
19.0
 40
20.0
 40
20.0
 40
20.0
 40
21.0
 40
21.0
 40
21.0
 40
22.0
 40
22.0
 40
22.0
 40
23.0
 40
23.0
 40
23.0
 40
24.0
 40
24.0
 40
24.0
 40
25.0
 40
25.0
 40
25.0
 40
26.0
 40
26.0
 40
26.0
 40
27.0
 40
27.0
 40
27.0
 40
28.0
 40
28.0
 40
28.0
 40
29.0
 40
29.0
 40
29.0
 40
30.0
 40
30.0
 40
30.0
 40
31.0
 40
31.0
 40
31.0
 40
32.0
 40
32.0
 40
32.0
 40
33.0
 40
33.0
 40
33.0
 40
34.0
 40
34.0
 40
34.0
 40
35.0
 40
35.0
 40
35.0
 40
36.0
 40
36.0
 40
36.0
 40
37.0
 40
37.0
 40
37.0
 40
38.0
 40
38.0
 40
38.0
 40
39.0
 40
39.0
 40
39.0
 40
40.0
 40
40.0
 40
40.0
 40
41.0
 40
41.0
 40
41.0
 40
42.0
 40
42.0
 40
42.0
 40
43.0
 40
43.0
 40
43.0
 40
44.0
 40
44.0
 40
44.0
 40
45.0
 40
45.0
 40
45.0
 40
46.0
 40
46.0
 40
46.0
 40
47.0
 40
47.0
 40
47.0
 40
48.0
 40
48.0
 40
48.0
 40
49.0
 40
49.0
 40
49.0
 40
50.0
 40
50.0
 40
50.0
 40
51.0
 40
51.0
 40
51.0
 40
52.0
 40
52.0
 40
52.0
 40
53.0
 40
53.0
 40
53.0
 40
54.0
 40
54.0
 40
54.0
 40
55.0
 40
55.0
 40
55.0
 40
56.0
 40
56.0
 40
56.0
 40
57.0
 40
57.0
 40
57.0
 40
58.0
 40
58.0
 40
58.0
 40
59.0
 40
59.0
 40
59.0
 40
60.0
 40
60.0
 40
60.0
 40
61.0
 40
61.0
 40
61.0
 40
62.0
 40
62.0
 40
62.0
 40
63.0
 40
63.0
 40
63.0
 40
64.0
 40
64.0
 40
64.0
 40
65.0
 40
65.0
 40
65.0
 40
66.0
 40
66.0
 40
66.0
 40
67.0
 40
67.0
 40
67.0
 40
68.0
 40
68.0
 40
68.0
 40
69.0
 40
69.0
 40
69.0
 40
70.0
 40
70.0
 40
70.0
 40
71.0
 40
71.0
 40
71.0
 40
72.0
 40
72.0
 40
72.0
 40
73.0
 40
73.0
 40
73.0
 40
74.0
 40
74.0
 40
74.0
 40
75.0
 40
75.0
 40
75.0
 40
76.0
 40
76.0
 40
76.0
 40
77.0
 40
77.0
 40
77.0
 40
78.0
 40
78.0
 40
78.0
 40
79.0
 40
79.0
 40
79.0
 40
80.0
 40
80.0
 40
80.0
 40
81.0
 40
81.0
 40
81.0
 40
82.0
 40
82.0
 40
82.0
 40
83.0
 40
83.0
 40
83.0
 40
84.0
 40
84.0
 40
84.0
 40
85.0
 40
85.0
 40
85.0
 40
86.0
 40
86.0
 40
86.0
 40
87.0
 40
87.0
 40
87.0
 40
88.0
 40
88.0
 40
88.0
 40
89.0
 40
89.0
 40
89.0
 40
90.0
 40
90.0
 40
90.0
 40
91.0
 40
91.0
 40
91.0
 40
92.0
 40
92.0
 40
92.0
 40
92.0
 10
207.5866805373559
 20
-387.1059835143349
 30
0.0
 10
207.5866805373559
 20
-387.1059835143349
 30
0.0
 10
204.7999831084505
 20
-378.9469743497075
 30
0.0
 10
204.7999831084505
 20
-378.9469743497075
 30
0.0
 10
204.7999831084505
 20
-378.9469743497075
 30
0.0
 10
210.3118182456096
 20
-370.8980318517198
 30
0.0
 10
210.3118182456096
 20
-370.8980318517198
 30
0.0
 10
210.3118182456096
 20
-370.8980318517198
 30
0.0
 10
205.8000022496045
 20
-357.6000029661554
 30
0.0
 10
205.8000022496045
 20
-357.6000029661554
 30
0.0
 10
205.8000022496045
 20
-357.6000029661554
 30
0.0
 10
205.8000022496045
 20
-300.0999768694197
 30
0.0
 10
205.8000022496045
 20
-300.0999768694197
 30
0.0
 10
208.5614407902655
 20
-300.0999768694197
 30
0.0
 10
210.7999921220442
 20
-297.8613902033125
 30
0.0
 10
210.7999921220442
 20
-295.0999515928918
 30
0.0
 10
210.7999921220442
 20
-294.5772760374666
 30
0.0
 10
210.7191707352172
 20
-294.0736152042591
 30
0.0
 10
210.5704043501237
 20
-293.6000110377113
 30
0.0
 10
210.5704043501237
 20
-293.6000110377113
 30
0.0
 10
205.8000022496045
 20
-293.6000110377113
 30
0.0
 10
205.8000022496045
 20
-293.6000110377113
 30
0.0
 10
205.8000022496045
 20
-293.6000110377113
 30
0.0
 10
204.8000183862274
 20
-293.6000110377113
 30
0.0
 10
204.8000183862274
 20
-293.6000110377113
 30
0.0
 10
204.8000183862274
 20
-293.6000110377113
 30
0.0
 10
136.8000220654962
 20
-273.5999804871553
 30
0.0
 10
136.8000220654962
 20
-273.5999804871553
 30
0.0
 10
136.8000220654962
 20
-273.5999804871553
 30
0.0
 10
71.80001261267351
 20
-292.7176432601539
 30
0.0
 10
71.80001261267351
 20
-292.7176432601539
 30
0.0
 10
71.80001261267351
 20
-292.7176432601539
 30
0.0
 10
71.80001261267351
 20
-273.5999804871553
 30
0.0
 10
71.80001261267351
 20
-273.5999804871553
 30
0.0
 10
71.80001261267351
 20
-273.5999804871553
 30
0.0
 10
68.80002574476511
 20
-275.5999835422114
 30
0.0
 10
68.80002574476511
 20
-275.5999835422114
 30
0.0
 10
68.80002574476511
 20
-275.5999835422114
 30
0.0
 10
61.80003286779425
 20
-273.5999804871553
 30
0.0
 10
61.80003286779425
 20
-273.5999804871553
 30
0.0
 10
61.80003286779425
 20
-273.5999804871553
 30
0.0
 10
61.80003286779425
 20
-253.5999852143775
 30
0.0
 10
61.80003286779425
 20
-253.5999852143775
 30
0.0
 10
61.80003286779425
 20
-253.5999852143775
 30
0.0
 10
68.80002574476511
 20
-251.5999821593221
 30
0.0
 10
68.80002574476511
 20
-251.5999821593221
 30
0.0
 10
68.80002574476511
 20
-251.5999821593221
 30
0.0
 10
71.80001261267351
 20
-253.5999852143775
 30
0.0
 10
71.80001261267351
 20
-253.5999852143775
 30
0.0
 10
71.80001261267351
 20
-253.5999852143775
 30
0.0
 10
71.80001261267351
 20
-203.5999793935443
 30
0.0
 10
71.80001261267351
 20
-203.5999793935443
 30
0.0
 10
71.80001261267351
 20
-203.5999793935443
 30
0.0
 10
68.80002574476511
 20
-205.5999824486
 30
0.0
 10
68.80002574476511
 20
-205.5999824486
 30
0.0
 10
68.80002574476511
 20
-205.5999824486
 30
0.0
 10
61.80003286779425
 20
-203.5999793935443
 30
0.0
 10
61.80003286779425
 20
-203.5999793935443
 30
0.0
 10
61.80003286779425
 20
-203.5999793935443
 30
0.0
 10
61.80003286779425
 20
-183.5999841207665
 30
0.0
 10
61.80003286779425
 20
-183.5999841207665
 30
0.0
 10
61.80003286779425
 20
-183.5999841207665
 30
0.0
 10
68.80002574476511
 20
-181.5999810657111
 30
0.0
 10
68.80002574476511
 20
-181.5999810657111
 30
0.0
 10
68.80002574476511
 20
-181.5999810657111
 30
0.0
 10
71.80001261267351
 20
-183.5999841207665
 30
0.0
 10
71.80001261267351
 20
-183.5999841207665
 30
0.0
 10
71.80001261267351
 20
-183.5999841207665
 30
0.0
 10
71.80001261267351
 20
-164.4823213477683
 30
0.0
 10
71.80001261267351
 20
-164.4823213477683
 30
0.0
 10
71.80001261267351
 20
-164.4823213477683
 30
0.0
 10
136.8000220654962
 20
-183.5999841207665
 30
0.0
 10
136.8000220654962
 20
-183.5999841207665
 30
0.0
 10
136.8000220654962
 20
-183.5999841207665
 30
0.0
 10
204.8000183862274
 20
-163.5999888479888
 30
0.0
 10
204.8000183862274
 20
-163.5999888479888
 30
0.0
 10
204.8000183862274
 20
-163.5999888479888
 30
0.0
 10
205.8000022496045
 20
-163.5999888479888
 30
0.0
 10
205.8000022496045
 20
-163.5999888479888
 30
0.0
 10
205.8000022496045
 20
-163.5999888479888
 30
0.0
 10
205.8000022496045
 20
-99.59999691954461
 30
0.0
 10
205.8000022496045
 20
-99.59999691954461
 30
0.0
 10
205.8000022496045
 20
-99.59999691954461
 30
0.0
 10
210.3118182456096
 20
-86.30193275620233
 30
0.0
 10
210.3118182456096
 20
-86.30193275620233
 30
0.0
 10
210.3118182456096
 20
-86.30193275620233
 30
0.0
 10
204.7999831084505
 20
-78.2529902582144
 30
0.0
 10
204.7999831084505
 20
-78.2529902582144
 30
0.0
 10
204.7999831084505
 20
-78.2529902582144
 30
0.0
 10
207.5388438719096
 20
-70.11391303802701
 30
0.0
 10
207.5388438719096
 20
-70.11391303802701
 30
0.0
 10
207.5388438719096
 20
-70.11391303802701
 30
0.0
 10
213.6765067708804
 20
-70.11391303802701
 30
0.0
 10
213.6765067708804
 20
-70.11391303802701
 30
0.0
 10
213.6765067708804
 20
-70.11391303802701
 30
0.0
 10
215.1311859004351
 20
-72.09744137086467
 30
0.0
 10
215.1311859004351
 20
-72.09744137086467
 30
0.0
 10
215.1311859004351
 20
-72.09744137086467
 30
0.0
 10
219.9535521662952
 20
-57.88420109663993
 30
0.0
 10
219.9535521662952
 20
-57.88420109663993
 30
0.0
 10
219.9535521662952
 20
-57.88420109663993
 30
0.0
 10
214.3499948092538
 20
-49.70134415424127
 30
0.0
 10
214.3499948092538
 20
-49.70134415424127
 30
0.0
 10
214.3499948092538
 20
-49.70134415424127
 30
0.0
 10
217.0030952971231
 20
-41.80554248954851
 30
0.0
 10
217.0030952971231
 20
-41.80554248954851
 30
0.0
 10
217.0030952971231
 20
-41.80554248954851
 30
0.0
 10
223.5056009645637
 20
-41.80554248954851
 30
0.0
 10
223.5056009645637
 20
-41.80554248954851
 30
0.0
 10
223.5056009645637
 20
-41.80554248954851
 30
0.0
 10
224.7999778759859
 20
-43.59998193354454
 30
0.0
 10
224.7999778759859
 20
-43.59998193354454
 30
0.0
 10
224.7999778759859
 20
-43.59998193354454
 30
0.0
 10
224.7999778759859
 20
-43.59998193354454
 30
0.0
 10
224.7999778759859
 20
-43.59998193354454
 30
0.0
 10
224.7999778759859
 20
-43.59998193354454
 30
0.0
 10
254.7999876661774
 20
-71.59998942654457
 30
0.0
 10
254.7999876661774
 20
-71.59998942654457
 30
0.0
 10
254.7999876661774
 20
-71.59998942654457
 30
0.0
 10
354.8000057446332
 20
-71.59998942654457
 30
0.0
 10
354.8000057446332
 20
-71.59998942654457
 30
0.0
 10
354.8000057446332
 20
-71.59998942654457
 30
0.0
 10
384.8000162926887
 20
-43.60001721132238
 30
0.0
 10
384.8000162926887
 20
-43.60001721132238
 30
0.0
 10
384.8000162926887
 20
-43.60001721132238
 30
0.0
 10
386.1936296256735
 20
-41.80554248954851
 30
0.0
 10
386.1936296256735
 20
-41.80554248954851
 30
0.0
 10
386.1936296256735
 20
-41.80554248954851
 30
0.0
 10
392.5294479574231
 20
-41.80554248954851
 30
0.0
 10
392.5294479574231
 20
-41.80554248954851
 30
0.0
 10
392.5294479574231
 20
-41.80554248954851
 30
0.0
 10
395.2499996234099
 20
-49.90207470974678
 30
0.0
 10
395.2499996234099
 20
-49.90207470974678
 30
0.0
 10
395.2499996234099
 20
-49.90207470974678
 30
0.0
 10
389.6919857359102
 20
-58.01843304105089
 30
0.0
 10
389.6919857359102
 20
-58.01843304105089
 30
0.0
 10
389.6919857359102
 20
-58.01843304105089
 30
0.0
 10
394.5144226791493
 20
-72.23192025971987
 30
0.0
 10
394.5144226791493
 20
-72.23192025971987
 30
0.0
 10
394.5144226791493
 20
-72.23192025971987
 30
0.0
 10
395.9263099010182
 20
-70.14919081579609
 30
0.0
 10
395.9263099010182
 20
-70.14919081579609
 30
0.0
 10
395.9263099010182
 20
-70.14919081579609
 30
0.0
 10
402.0639729550394
 20
-70.14919081579609
 30
0.0
 10
402.0639729550394
 20
-70.14919081579609
 30
0.0
 10
402.0639729550394
 20
-70.14919081579609
 30
0.0
 10
404.8000115654664
 20
-78.45372081371991
 30
0.0
 10
404.8000115654664
 20
-78.45372081371991
 30
0.0
 10
404.8000115654664
 20
-78.45372081371991
 30
0.0
 10
399.3336846223885
 20
-86.4361647006133
 30
0.0
 10
399.3336846223885
 20
-86.4361647006133
 30
0.0
 10
399.3336846223885
 20
-86.4361647006133
 30
0.0
 10
403.79999239905
 20
-99.59999691954461
 30
0.0
 10
403.79999239905
 20
-99.59999691954461
 30
0.0
 10
403.79999239905
 20
-99.59999691954461
 30
0.0
 10
403.79999239905
 20
-163.5999888479888
 30
0.0
 10
403.79999239905
 20
-163.5999888479888
 30
0.0
 10
403.79999239905
 20
-163.5999888479888
 30
0.0
 10
404.8000115654664
 20
-163.5999888479888
 30
0.0
 10
404.8000115654664
 20
-163.5999888479888
 30
0.0
 10
404.8000115654664
 20
-163.5999888479888
 30
0.0
 10
472.800009604022
 20
-183.5999841207665
 30
0.0
 10
472.800009604022
 20
-183.5999841207665
 30
0.0
 10
472.800009604022
 20
-183.5999841207665
 30
0.0
 10
537.7999854211058
 20
-164.4823213477683
 30
0.0
 10
537.7999854211058
 20
-164.4823213477683
 30
0.0
 10
537.7999854211058
 20
-164.4823213477683
 30
0.0
 10
537.7999854211058
 20
-183.5999841207665
 30
0.0
 10
537.7999854211058
 20
-183.5999841207665
 30
0.0
 10
537.7999854211058
 20
-183.5999841207665
 30
0.0
 10
540.7999723648002
 20
-181.600016343489
 30
0.0
 10
540.7999723648002
 20
-181.600016343489
 30
0.0
 10
540.7999723648002
 20
-181.600016343489
 30
0.0
 10
547.7999654186059
 20
-183.5999841207665
 30
0.0
 10
547.7999654186059
 20
-183.5999841207665
 30
0.0
 10
547.7999654186059
 20
-183.5999841207665
 30
0.0
 10
547.7999654186059
 20
-203.6000146713222
 30
0.0
 10
547.7999654186059
 20
-203.6000146713222
 30
0.0
 10
547.7999654186059
 20
-203.6000146713222
 30
0.0
 10
540.7999723648002
 20
-205.6000177263779
 30
0.0
 10
540.7999723648002
 20
-205.6000177263779
 30
0.0
 10
540.7999723648002
 20
-205.6000177263779
 30
0.0
 10
537.7999854211058
 20
-203.6000146713222
 30
0.0
 10
537.7999854211058
 20
-203.6000146713222
 30
0.0
 10
537.7999854211058
 20
-203.6000146713222
 30
0.0
 10
537.7999854211058
 20
-253.5999852143775
 30
0.0
 10
537.7999854211058
 20
-253.5999852143775
 30
0.0
 10
537.7999854211058
 20
-253.5999852143775
 30
0.0
 10
540.7999723648002
 20
-251.5999821593221
 30
0.0
 10
540.7999723648002
 20
-251.5999821593221
 30
0.0
 10
540.7999723648002
 20
-251.5999821593221
 30
0.0
 10
547.7999654186059
 20
-253.5999852143775
 30
0.0
 10
547.7999654186059
 20
-253.5999852143775
 30
0.0
 10
547.7999654186059
 20
-253.5999852143775
 30
0.0
 10
547.7999654186059
 20
-273.5999804871553
 30
0.0
 10
547.7999654186059
 20
-273.5999804871553
 30
0.0
 10
547.7999654186059
 20
-273.5999804871553
 30
0.0
 10
540.7999723648002
 20
-275.5999835422114
 30
0.0
 10
540.7999723648002
 20
-275.5999835422114
 30
0.0
 10
540.7999723648002
 20
-275.5999835422114
 30
0.0
 10
537.7999854211058
 20
-273.5999804871553
 30
0.0
 10
537.7999854211058
 20
-273.5999804871553
 30
0.0
 10
537.7999854211058
 20
-273.5999804871553
 30
0.0
 10
537.7999854211058
 20
-292.7176432601539
 30
0.0
 10
537.7999854211058
 20
-292.7176432601539
 30
0.0
 10
537.7999854211058
 20
-292.7176432601539
 30
0.0
 10
472.800009604022
 20
-273.5999804871553
 30
0.0
 10
472.800009604022
 20
-273.5999804871553
 30
0.0
 10
472.800009604022
 20
-273.5999804871553
 30
0.0
 10
404.8000115654664
 20
-293.6000110377113
 30
0.0
 10
404.8000115654664
 20
-293.6000110377113
 30
0.0
 10
404.8000115654664
 20
-293.6000110377113
 30
0.0
 10
403.79999239905
 20
-293.6000110377113
 30
0.0
 10
403.79999239905
 20
-293.6000110377113
 30
0.0
 10
403.79999239905
 20
-293.6000110377113
 30
0.0
 10
403.79999239905
 20
-357.6000029661554
 30
0.0
 10
403.79999239905
 20
-357.6000029661554
 30
0.0
 10
403.79999239905
 20
-357.6000029661554
 30
0.0
 10
399.3336846223885
 20
-370.7638351850867
 30
0.0
 10
399.3336846223885
 20
-370.7638351850867
 30
0.0
 10
399.3336846223885
 20
-370.7638351850867
 30
0.0
 10
404.8000115654664
 20
-378.7463143497579
 30
0.0
 10
404.8000115654664
 20
-378.7463143497579
 30
0.0
 10
404.8000115654664
 20
-378.7463143497579
 30
0.0
 10
402.0122910106083
 20
-387.0287604587987
 30
0.0
 10
402.0122910106083
 20
-387.0287604587987
 30
0.0
 10
402.0122910106083
 20
-387.0287604587987
 30
0.0
 10
395.8746279565871
 20
-387.0287604587987
 30
0.0
 10
395.8746279565871
 20
-387.0287604587987
 30
0.0
 10
395.8746279565871
 20
-387.0287604587987
 30
0.0
 10
394.5144226791493
 20
-384.9680443482023
 30
0.0
 10
394.5144226791493
 20
-384.9680443482023
 30
0.0
 10
394.5144226791493
 20
-384.9680443482023
 30
0.0
 10
389.6919857359102
 20
-399.1815668446491
 30
0.0
 10
389.6919857359102
 20
-399.1815668446491
 30
0.0
 10
389.6919857359102
 20
-399.1815668446491
 30
0.0
 10
395.2499996234099
 20
-407.2979251759533
 30
0.0
 10
395.2499996234099
 20
-407.2979251759533
 30
0.0
 10
395.2499996234099
 20
-407.2979251759533
 30
0.0
 10
392.5294479574231
 20
-415.3944573961515
 30
0.0
 10
392.5294479574231
 20
-415.3944573961515
 30
0.0
 10
392.5294479574231
 20
-415.3944573961515
 30
0.0
 10
386.1936296256735
 20
-415.3944573961515
 30
0.0
 10
386.1936296256735
 20
-415.3944573961515
 30
0.0
 10
386.1936296256735
 20
-415.3944573961515
 30
0.0
 10
384.8000162926887
 20
-413.5999826743779
 30
0.0
 10
384.8000162926887
 20
-413.5999826743779
 30
0.0
 10
384.8000162926887
 20
-413.5999826743779
 30
0.0
 10
354.8000057446332
 20
-385.5999751813779
 30
0.0
 10
354.8000057446332
 20
-385.5999751813779
 30
0.0
 10
354.8000057446332
 20
-385.5999751813779
 30
0.0
 10
254.7999876661774
 20
-385.5999751813779
 30
0.0
 10
254.7999876661774
 20
-385.5999751813779
 30
0.0
 10
254.7999876661774
 20
-385.5999751813779
 30
0.0
 10
224.7999778759859
 20
-413.5999826743779
 30
0.0
 10
224.7999778759859
 20
-413.5999826743779
 30
0.0
 10
224.7999778759859
 20
-413.5999826743779
 30
0.0
 10
223.5056009645637
 20
-415.3944573961515
 30
0.0
 10
223.5056009645637
 20
-415.3944573961515
 30
0.0
 10
223.5056009645637
 20
-415.3944573961515
 30
0.0
 10
217.0030952971231
 20
-415.3944573961515
 30
0.0
 10
217.0030952971231
 20
-415.3944573961515
 30
0.0
 10
217.0030952971231
 20
-415.3944573961515
 30
0.0
 10
214.3499948092538
 20
-407.4986557314584
 30
0.0
 10
214.3499948092538
 20
-407.4986557314584
 30
0.0
 10
214.3499948092538
 20
-407.4986557314584
 30
0.0
 10
219.9535521662952
 20
-399.3157635112822
 30
0.0
 10
219.9535521662952
 20
-399.3157635112822
 30
0.0
 10
219.9535521662952
 20
-399.3157635112822
 30
0.0
 10
215.1311859004351
 20
-385.1025937926132
 30
0.0
 10
215.1311859004351
 20
-385.1025937926132
 30
0.0
 10
215.1311859004351
 20
-385.1025937926132
 30
0.0
 10
213.7243787141035
 20
-387.1059835143349
 30
0.0
 10
213.7243787141035
 20
-387.1059835143349
 30
0.0
 10
213.7243787141035
 20
-387.1059835143349
 30
0.0
 10
207.5866805373559
 20
-387.1059835143349
 30
0.0
 10
207.5866805373559
 20
-387.1059835143349
 30
0.0
  0
ENDSEC
  0
SECTION
  2
OBJECTS
  0
DICTIONARY
  5
C
330
0
100
AcDbDictionary
281
     1
  3
ACAD_GROUP
350
D
  3
ACAD_LAYOUT
350
1A
  3
ACAD_MATERIAL
350
3B
  3
ACAD_MLEADERSTYLE
350
127
  3
ACAD_MLINESTYLE
350
17
  3
ACAD_PLOTSETTINGS
350
19
  3
ACAD_PLOTSTYLENAME
350
E
  3
ACAD_TABLESTYLE
350
126
  3
ACAD_VISUALSTYLE
350
2A
  0
SUN
  5
3F
330
29
100
AcDbSun
 90
        1
290
     0
 63
     7
421
 16777215
 40
1.0
291
     1
 91
  2455826
 92
 54000000
292
     0
 70
     2
 71
   256
280
     1
  0
DICTIONARY
  5
D
102
{ACAD_REACTORS
330
C
102
}
330
C
100
AcDbDictionary
281
     1
  0
DICTIONARY
  5
1A
102
{ACAD_REACTORS
330
C
102
}
330
C
100
AcDbDictionary
281
     1
  3
Layout1
350
1E
  3
Layout2
350
26
  3
Model
350
22
  0
DICTIONARY
  5
3B
102
{ACAD_REACTORS
330
C
102
}
330
C
100
AcDbDictionary
281
     1
  3
ByBlock
350
3D
  3
ByLayer
350
3C
  3
Global
350
3E
  0
DICTIONARY
  5
127
102
{ACAD_REACTORS
330
C
102
}
330
C
100
AcDbDictionary
281
     1
  0
DICTIONARY
  5
17
102
{ACAD_REACTORS
330
C
102
}
330
C
100
AcDbDictionary
281
     1
  3
Standard
350
18
  0
DICTIONARY
  5
19
102
{ACAD_REACTORS
330
C
102
}
330
C
100
AcDbDictionary
281
     1
  0
ACDBDICTIONARYWDFLT
  5
E
102
{ACAD_REACTORS
330
C
102
}
330
C
100
AcDbDictionary
281
     1
  3
Normal
350
F
100
AcDbDictionaryWithDefault
340
F
  0
DICTIONARY
  5
126
102
{ACAD_REACTORS
330
C
102
}
330
C
100
AcDbDictionary
281
     1
  0
DICTIONARY
  5
2A
102
{ACAD_REACTORS
330
C
102
}
330
C
100
AcDbDictionary
281
     1
  3
2dWireframe
350
2F
  3
3D Hidden
350
31
  3
3dWireframe
350
30
  3
Basic
350
32
  3
Brighten
350
36
  3
ColorChange
350
3A
  3
Conceptual
350
34
  3
Dim
350
35
  3
Facepattern
350
39
  3
Flat
350
2B
  3
FlatWithEdges
350
2C
  3
Gouraud
350
2D
  3
GouraudWithEdges
350
2E
  3
Linepattern
350
38
  3
Realistic
350
33
  3
Thicken
350
37
  0
LAYOUT
  5
1E
102
{ACAD_REACTORS
330
1A
102
}
330
1A
100
AcDbPlotSettings
  1

  2
none_device
  4

  6

 40
0.0
 41
0.0
 42
0.0
 43
0.0
 44
0.0
 45
0.0
 46
0.0
 47
0.0
 48
0.0
 49
0.0
140
0.0
141
0.0
142
1.0
143
1.0
 70
   688
 72
     0
 73
     0
 74
     5
  7

 75
    16
 76
     0
 77
     2
 78
   300
147
1.0
148
0.0
149
0.0
100
AcDbLayout
  1
Layout1
 70
     1
 71
     1
 10
0.0
 20
0.0
 11
12.0
 21
9.0
 12
0.0
 22
0.0
 32
0.0
 14
1.000000000000000E+20
 24
1.000000000000000E+20
 34
1.000000000000000E+20
 15
-1.000000000000000E+20
 25
-1.000000000000000E+20
 35
-1.000000000000000E+20
146
0.0
 13
0.0
 23
0.0
 33
0.0
 16
1.0
 26
0.0
 36
0.0
 17
0.0
 27
1.0
 37
0.0
 76
     0
330
1B
  0
LAYOUT
  5
26
102
{ACAD_REACTORS
330
1A
102
}
330
1A
100
AcDbPlotSettings
  1

  2
none_device
  4

  6

 40
0.0
 41
0.0
 42
0.0
 43
0.0
 44
0.0
 45
0.0
 46
0.0
 47
0.0
 48
0.0
 49
0.0
140
0.0
141
0.0
142
1.0
143
1.0
 70
   688
 72
     0
 73
     0
 74
     5
  7

 75
    16
 76
     0
 77
     2
 78
   300
147
1.0
148
0.0
149
0.0
100
AcDbLayout
  1
Layout2
 70
     1
 71
     2
 10
0.0
 20
0.0
 11
0.0
 21
0.0
 12
0.0
 22
0.0
 32
0.0
 14
0.0
 24
0.0
 34
0.0
 15
0.0
 25
0.0
 35
0.0
146
0.0
 13
0.0
 23
0.0
 33
0.0
 16
1.0
 26
0.0
 36
0.0
 17
0.0
 27
1.0
 37
0.0
 76
     0
330
23
  0
LAYOUT
  5
22
102
{ACAD_REACTORS
330
1A
102
}
330
1A
100
AcDbPlotSettings
  1

  2
none_device
  4

  6

 40
0.0
 41
0.0
 42
0.0
 43
0.0
 44
0.0
 45
0.0
 46
0.0
 47
0.0
 48
0.0
 49
0.0
140
0.0
141
0.0
142
1.0
143
1.0
 70
  1712
 72
     0
 73
     0
 74
     0
  7

 75
     0
 76
     0
 77
     2
 78
   300
147
1.0
148
0.0
149
0.0
100
AcDbLayout
  1
Model
 70
     1
 71
     0
 10
0.0
 20
0.0
 11
12.0
 21
9.0
 12
0.0
 22
0.0
 32
0.0
 14
1.000000000000000E+20
 24
1.000000000000000E+20
 34
1.000000000000000E+20
 15
-1.000000000000000E+20
 25
-1.000000000000000E+20
 35
-1.000000000000000E+20
146
0.0
 13
0.0
 23
0.0
 33
0.0
 16
1.0
 26
0.0
 36
0.0
 17
0.0
 27
1.0
 37
0.0
 76
     0
330
1F
331
29
  0
MATERIAL
  5
3D
102
{ACAD_REACTORS
330
3B
102
}
330
3B
100
AcDbMaterial
  1
ByBlock
 72
     1
 94
      127
  0
MATERIAL
  5
3C
102
{ACAD_REACTORS
330
3B
102
}
330
3B
100
AcDbMaterial
  1
ByLayer
 72
     1
 94
      127
  0
MATERIAL
  5
3E
102
{ACAD_REACTORS
330
3B
102
}
330
3B
100
AcDbMaterial
  1
Global
 72
     1
 94
      127
  0
MLINESTYLE
  5
18
102
{ACAD_REACTORS
330
17
102
}
330
17
100
AcDbMlineStyle
  2
Standard
 70
     0
  3

 62
   256
 51
90.0
 52
90.0
 71
     2
 49
0.5
 62
   256
  6
BYLAYER
 49
-0.5
 62
   256
  6
BYLAYER
  0
ACDBPLACEHOLDER
  5
F
102
{ACAD_REACTORS
330
E
102
}
330
E
  0
VISUALSTYLE
  5
2F
102
{ACAD_REACTORS
330
2A
102
}
330
2A
100
AcDbVisualStyle
  2
2dWireframe
 70
     4
177
     2
291
     0
 71
     0
176
     1
 72
     2
176
     1
 73
     0
176
     1
 90
        0
176
     1
 40
-0.6
176
     1
 41
-30.0
176
     1
 62
     5
 63
     7
421
 16777215
176
     1
 74
     1
176
     1
 91
        4
176
     1
 64
     7
176
     1
 65
   257
176
     1
 75
     1
176
     1
175
     1
176
     1
 42
1.0
176
     1
 92
        0
176
     1
 66
   257
176
     1
 43
1.0
176
     1
 76
     1
176
     1
 77
     6
176
     1
 78
     2
176
     1
 67
     7
176
     1
 79
     5
176
     1
170
     0
176
     1
171
     0
176
     1
290
     0
176
     1
 93
        1
176
     1
 44
0.0
176
     1
173
     0
176
     1
  0
VISUALSTYLE
  5
31
102
{ACAD_REACTORS
330
2A
102
}
330
2A
100
AcDbVisualStyle
  2
3D Hidden
 70
     6
177
     2
291
     0
 71
     1
176
     1
 72
     2
176
     1
 73
     2
176
     1
 90
        0
176
     1
 40
-0.6
176
     1
 41
-30.0
176
     1
 62
     5
 63
     7
421
 16777215
176
     1
 74
     2
176
     1
 91
        2
176
     1
 64
     7
176
     1
 65
   257
176
     1
 75
     2
176
     1
175
     1
176
     1
 42
40.0
176
     1
 92
        0
176
     1
 66
   257
176
     1
 43
1.0
176
     1
 76
     1
176
     1
 77
     6
176
     1
 78
     2
176
     1
 67
     7
176
     1
 79
     3
176
     1
170
     0
176
     1
171
     0
176
     1
290
     0
176
     1
 93
        1
176
     1
 44
0.0
176
     1
173
     0
176
     1
  0
VISUALSTYLE
  5
30
102
{ACAD_REACTORS
330
2A
102
}
330
2A
100
AcDbVisualStyle
  2
3dWireframe
 70
     5
177
     2
291
     0
 71
     0
176
     1
 72
     2
176
     1
 73
     0
176
     1
 90
        0
176
     1
 40
-0.6
176
     1
 41
-30.0
176
     1
 62
     5
 63
     7
421
 16777215
176
     1
 74
     1
176
     1
 91
        4
176
     1
 64
     7
176
     1
 65
   257
176
     1
 75
     1
176
     1
175
     1
176
     1
 42
1.0
176
     1
 92
        0
176
     1
 66
   257
176
     1
 43
1.0
176
     1
 76
     1
176
     1
 77
     6
176
     1
 78
     2
176
     1
 67
     7
176
     1
 79
     5
176
     1
170
     0
176
     1
171
     0
176
     1
290
     0
176
     1
 93
        1
176
     1
 44
0.0
176
     1
173
     0
176
     1
  0
VISUALSTYLE
  5
32
102
{ACAD_REACTORS
330
2A
102
}
330
2A
100
AcDbVisualStyle
  2
Basic
 70
     7
177
     2
291
     1
 71
     1
176
     1
 72
     0
176
     1
 73
     1
176
     1
 90
        0
176
     1
 40
-0.6
176
     1
 41
-30.0
176
     1
 62
     5
 63
     7
421
 16777215
176
     1
 74
     0
176
     1
 91
        4
176
     1
 64
     7
176
     1
 65
   257
176
     1
 75
     1
176
     1
175
     1
176
     1
 42
1.0
176
     1
 92
        8
176
     1
 66
     7
176
     1
 43
1.0
176
     1
 76
     1
176
     1
 77
     6
176
     1
 78
     2
176
     1
 67
     7
176
     1
 79
     5
176
     1
170
     0
176
     1
171
     0
176
     1
290
     0
176
     1
 93
        1
176
     1
 44
0.0
176
     1
173
     0
176
     1
  0
VISUALSTYLE
  5
36
102
{ACAD_REACTORS
330
2A
102
}
330
2A
100
AcDbVisualStyle
  2
Brighten
 70
    12
177
     2
291
     1
 71
     2
176
     1
 72
     2
176
     1
 73
     0
176
     1
 90
        0
176
     1
 40
-0.6
176
     1
 41
-30.0
176
     1
 62
     5
 63
     7
421
 16777215
176
     1
 74
     1
176
     1
 91
        4
176
     1
 64
     7
176
     1
 65
   257
176
     1
 75
     1
176
     1
175
     1
176
     1
 42
1.0
176
     1
 92
        8
176
     1
 66
     7
176
     1
 43
1.0
176
     1
 76
     1
176
     1
 77
     6
176
     1
 78
     2
176
     1
 67
     7
176
     1
 79
     5
176
     1
170
     0
176
     1
171
     0
176
     1
290
     0
176
     1
 93
        1
176
     1
 44
50.0
176
     1
173
     0
176
     1
  0
VISUALSTYLE
  5
3A
102
{ACAD_REACTORS
330
2A
102
}
330
2A
100
AcDbVisualStyle
  2
ColorChange
 70
    16
177
     2
291
     1
 71
     2
176
     1
 72
     2
176
     1
 73
     3
176
     1
 90
        0
176
     1
 40
-0.6
176
     1
 41
-30.0
176
     1
 62
     5
 63
     8
421
  8421504
176
     1
 74
     1
176
     1
 91
        4
176
     1
 64
     7
176
     1
 65
   257
176
     1
 75
     1
176
     1
175
     1
176
     1
 42
1.0
176
     1
 92
        8
176
     1
 66
     8
424
  8421504
176
     1
 43
1.0
176
     1
 76
     1
176
     1
 77
     6
176
     1
 78
     2
176
     1
 67
     7
176
     1
 79
     5
176
     1
170
     0
176
     1
171
     0
176
     1
290
     0
176
     1
 93
        1
176
     1
 44
0.0
176
     1
173
     0
176
     1
  0
VISUALSTYLE
  5
34
102
{ACAD_REACTORS
330
2A
102
}
330
2A
100
AcDbVisualStyle
  2
Conceptual
 70
     9
177
     2
291
     0
 71
     3
176
     1
 72
     2
176
     1
 73
     0
176
     1
 90
        0
176
     1
 40
-0.6
176
     1
 41
-30.0
176
     1
 62
     5
 63
     7
421
 16777215
176
     1
 74
     2
176
     1
 91
        2
176
     1
 64
     7
176
     1
 65
   257
176
     1
 75
     1
176
     1
175
     1
176
     1
 42
40.0
176
     1
 92
        8
176
     1
 66
     7
176
     1
 43
1.0
176
     1
 76
     1
176
     1
 77
     6
176
     1
 78
     2
176
     1
 67
     7
176
     1
 79
     3
176
     1
170
     0
176
     1
171
     0
176
     1
290
     0
176
     1
 93
        1
176
     1
 44
0.0
176
     1
173
     0
176
     1
  0
VISUALSTYLE
  5
35
102
{ACAD_REACTORS
330
2A
102
}
330
2A
100
AcDbVisualStyle
  2
Dim
 70
    11
177
     2
291
     1
 71
     2
176
     1
 72
     2
176
     1
 73
     0
176
     1
 90
        0
176
     1
 40
-0.6
176
     1
 41
-30.0
176
     1
 62
     5
 63
     7
421
 16777215
176
     1
 74
     1
176
     1
 91
        4
176
     1
 64
     7
176
     1
 65
   257
176
     1
 75
     1
176
     1
175
     1
176
     1
 42
1.0
176
     1
 92
        8
176
     1
 66
     7
176
     1
 43
1.0
176
     1
 76
     1
176
     1
 77
     6
176
     1
 78
     2
176
     1
 67
     7
176
     1
 79
     5
176
     1
170
     0
176
     1
171
     0
176
     1
290
     0
176
     1
 93
        1
176
     1
 44
-50.0
176
     1
173
     0
176
     1
  0
VISUALSTYLE
  5
39
102
{ACAD_REACTORS
330
2A
102
}
330
2A
100
AcDbVisualStyle
  2
Facepattern
 70
    15
177
     2
291
     1
 71
     2
176
     1
 72
     2
176
     1
 73
     0
176
     1
 90
        0
176
     1
 40
-0.6
176
     1
 41
-30.0
176
     1
 62
     5
 63
     7
421
 16777215
176
     1
 74
     1
176
     1
 91
        4
176
     1
 64
     7
176
     1
 65
   257
176
     1
 75
     1
176
     1
175
     1
176
     1
 42
1.0
176
     1
 92
        8
176
     1
 66
     7
176
     1
 43
1.0
176
     1
 76
     1
176
     1
 77
     6
176
     1
 78
     2
176
     1
 67
     7
176
     1
 79
     5
176
     1
170
     0
176
     1
171
     0
176
     1
290
     0
176
     1
 93
        1
176
     1
 44
0.0
176
     1
173
     0
176
     1
  0
VISUALSTYLE
  5
2B
102
{ACAD_REACTORS
330
2A
102
}
330
2A
100
AcDbVisualStyle
  2
Flat
 70
     0
177
     2
291
     1
 71
     2
176
     1
 72
     1
176
     1
 73
     1
176
     1
 90
        2
176
     1
 40
-0.6
176
     1
 41
30.0
176
     1
 62
     5
 63
     7
421
 16777215
176
     1
 74
     0
176
     1
 91
        4
176
     1
 64
     7
176
     1
 65
   257
176
     1
 75
     1
176
     1
175
     1
176
     1
 42
1.0
176
     1
 92
        8
176
     1
 66
     7
176
     1
 43
1.0
176
     1
 76
     1
176
     1
 77
     6
176
     1
 78
     2
176
     1
 67
     7
176
     1
 79
     5
176
     1
170
     0
176
     1
171
     0
176
     1
290
     0
176
     1
 93
       13
176
     1
 44
0.0
176
     1
173
     0
176
     1
  0
VISUALSTYLE
  5
2C
102
{ACAD_REACTORS
330
2A
102
}
330
2A
100
AcDbVisualStyle
  2
FlatWithEdges
 70
     1
177
     2
291
     1
 71
     2
176
     1
 72
     1
176
     1
 73
     1
176
     1
 90
        2
176
     1
 40
-0.6
176
     1
 41
30.0
176
     1
 62
     5
 63
     7
421
 16777215
176
     1
 74
     1
176
     1
 91
        4
176
     1
 64
     7
176
     1
 65
   257
176
     1
 75
     1
176
     1
175
     1
176
     1
 42
1.0
176
     1
 92
        0
176
     1
 66
   257
176
     1
 43
1.0
176
     1
 76
     1
176
     1
 77
     6
176
     1
 78
     2
176
     1
 67
     7
176
     1
 79
     5
176
     1
170
     0
176
     1
171
     0
176
     1
290
     0
176
     1
 93
       13
176
     1
 44
0.0
176
     1
173
     0
176
     1
  0
VISUALSTYLE
  5
2D
102
{ACAD_REACTORS
330
2A
102
}
330
2A
100
AcDbVisualStyle
  2
Gouraud
 70
     2
177
     2
291
     1
 71
     2
176
     1
 72
     2
176
     1
 73
     1
176
     1
 90
        2
176
     1
 40
-0.6
176
     1
 41
30.0
176
     1
 62
     5
 63
     7
421
 16777215
176
     1
 74
     0
176
     1
 91
        4
176
     1
 64
     7
176
     1
 65
   257
176
     1
 75
     1
176
     1
175
     1
176
     1
 42
1.0
176
     1
 92
        0
176
     1
 66
     7
176
     1
 43
1.0
176
     1
 76
     1
176
     1
 77
     6
176
     1
 78
     2
176
     1
 67
     7
176
     1
 79
     5
176
     1
170
     0
176
     1
171
     0
176
     1
290
     0
176
     1
 93
       13
176
     1
 44
0.0
176
     1
173
     0
176
     1
  0
VISUALSTYLE
  5
2E
102
{ACAD_REACTORS
330
2A
102
}
330
2A
100
AcDbVisualStyle
  2
GouraudWithEdges
 70
     3
177
     2
291
     1
 71
     2
176
     1
 72
     2
176
     1
 73
     1
176
     1
 90
        2
176
     1
 40
-0.6
176
     1
 41
30.0
176
     1
 62
     5
 63
     7
421
 16777215
176
     1
 74
     1
176
     1
 91
        4
176
     1
 64
     7
176
     1
 65
   257
176
     1
 75
     1
176
     1
175
     1
176
     1
 42
1.0
176
     1
 92
        0
176
     1
 66
   257
176
     1
 43
1.0
176
     1
 76
     1
176
     1
 77
     6
176
     1
 78
     2
176
     1
 67
     7
176
     1
 79
     5
176
     1
170
     0
176
     1
171
     0
176
     1
290
     0
176
     1
 93
       13
176
     1
 44
0.0
176
     1
173
     0
176
     1
  0
VISUALSTYLE
  5
38
102
{ACAD_REACTORS
330
2A
102
}
330
2A
100
AcDbVisualStyle
  2
Linepattern
 70
    14
177
     2
291
     1
 71
     2
176
     1
 72
     2
176
     1
 73
     0
176
     1
 90
        0
176
     1
 40
-0.6
176
     1
 41
-30.0
176
     1
 62
     5
 63
     7
421
 16777215
176
     1
 74
     1
176
     1
 91
        4
176
     1
 64
     7
176
     1
 65
   257
176
     1
 75
     7
176
     1
175
     7
176
     1
 42
1.0
176
     1
 92
        8
176
     1
 66
     7
176
     1
 43
1.0
176
     1
 76
     1
176
     1
 77
     6
176
     1
 78
     2
176
     1
 67
     7
176
     1
 79
     5
176
     1
170
     0
176
     1
171
     0
176
     1
290
     0
176
     1
 93
        1
176
     1
 44
0.0
176
     1
173
     0
176
     1
  0
VISUALSTYLE
  5
33
102
{ACAD_REACTORS
330
2A
102
}
330
2A
100
AcDbVisualStyle
  2
Realistic
 70
     8
177
     2
291
     0
 71
     2
176
     1
 72
     2
176
     1
 73
     0
176
     1
 90
        0
176
     1
 40
-0.6
176
     1
 41
-30.0
176
     1
 62
     5
 63
     7
421
 16777215
176
     1
 74
     1
176
     1
 91
        0
176
     1
 64
     7
176
     1
 65
   257
176
     1
 75
     1
176
     1
175
     1
176
     1
 42
1.0
176
     1
 92
        8
176
     1
 66
     8
424
  7895160
176
     1
 43
1.0
176
     1
 76
     1
176
     1
 77
     6
176
     1
 78
     2
176
     1
 67
     7
176
     1
 79
     5
176
     1
170
     0
176
     1
171
     0
176
     1
290
     0
176
     1
 93
       13
176
     1
 44
0.0
176
     1
173
     0
176
     1
  0
VISUALSTYLE
  5
37
102
{ACAD_REACTORS
330
2A
102
}
330
2A
100
AcDbVisualStyle
  2
Thicken
 70
    13
177
     2
291
     1
 71
     2
176
     1
 72
     2
176
     1
 73
     0
176
     1
 90
        0
176
     1
 40
-0.6
176
     1
 41
-30.0
176
     1
 62
     5
 63
     7
421
 16777215
176
     1
 74
     1
176
     1
 91
        4
176
     1
 64
     7
176
     1
 65
   257
176
     1
 75
     1
176
     1
175
     1
176
     1
 42
1.0
176
     1
 92
       12
176
     1
 66
     7
176
     1
 43
1.0
176
     1
 76
     1
176
     1
 77
     6
176
     1
 78
     2
176
     1
 67
     7
176
     1
 79
     5
176
     1
170
     0
176
     1
171
     0
176
     1
290
     0
176
     1
 93
        1
176
     1
 44
0.0
176
     1
173
     0
176
     1
  0
ENDSEC
  0
EOF
